<svg version="1.1" viewBox="0.0 0.0 675.6666666666666 384.5485564304462" fill="none" stroke="none" stroke-linecap="square" stroke-miterlimit="10" xmlns:xlink="http://www.w3.org/1999/xlink" xmlns="http://www.w3.org/2000/svg"><clipPath id="p.0"><path d="m0 0l675.6667 0l0 384.54855l-675.6667 0l0 -384.54855z" clip-rule="nonzero"/></clipPath><g clip-path="url(#p.0)"><path fill="#000000" fill-opacity="0.0" d="m0 0l675.6667 0l0 384.54855l-675.6667 0z" fill-rule="evenodd"/><path shape-rendering="crispEdges" fill="#39393a" d="m0 247.32808l84.25984 0l0 71.79265l-84.25984 0l0 -71.79265z" fill-rule="nonzero"/><path shape-rendering="crispEdges" fill="#f0522a" d="m84.25984 247.32808l84.25984 0l0 71.79265l-84.25984 0l0 -71.79265z" fill-rule="nonzero"/><path shape-rendering="crispEdges" fill="#82c476" d="m168.51968 247.32808l84.25984 0l0 71.79265l-84.25984 0l0 -71.79265z" fill-rule="nonzero"/><path shape-rendering="crispEdges" fill="#fee040" d="m252.77953 247.32808l84.25984 0l0 71.79265l-84.25984 0l0 -71.79265z" fill-rule="nonzero"/><path shape-rendering="crispEdges" fill="#5eb1dd" d="m337.03937 247.32808l84.25986 0l0 71.79265l-84.25986 0l0 -71.79265z" fill-rule="nonzero"/><path shape-rendering="crispEdges" fill="#c4a5c7" d="m421.29922 247.32808l84.25983 0l0 71.79265l-84.25983 0l0 -71.79265z" fill-rule="nonzero"/><path shape-rendering="crispEdges" fill="#7ec6eb" d="m505.55905 247.32808l84.25986 0l0 71.79265l-84.25986 0l0 -71.79265z" fill-rule="nonzero"/><path shape-rendering="crispEdges" fill="#c9cac0" d="m589.8189 247.32808l84.25983 0l0 71.79265l-84.25983 0l0 -71.79265z" fill-rule="nonzero"/><path shape-rendering="crispEdges" fill="#6c6d6c" d="m0 319.12073l84.25984 0l0 63.892395l-84.25984 0l0 -63.892395z" fill-rule="nonzero"/><path shape-rendering="crispEdges" fill="#fe6743" d="m84.25984 319.12073l84.25984 0l0 63.892395l-84.25984 0l0 -63.892395z" fill-rule="nonzero"/><path shape-rendering="crispEdges" fill="#88d07e" d="m168.51968 319.12073l84.25984 0l0 63.892395l-84.25984 0l0 -63.892395z" fill-rule="nonzero"/><path shape-rendering="crispEdges" fill="#fae959" d="m252.77953 319.12073l84.25984 0l0 63.892395l-84.25984 0l0 -63.892395z" fill-rule="nonzero"/><path shape-rendering="crispEdges" fill="#73b8dc" d="m337.03937 319.12073l84.25986 0l0 63.892395l-84.25986 0l0 -63.892395z" fill-rule="nonzero"/><path shape-rendering="crispEdges" fill="#d5b7d4" d="m421.29922 319.12073l84.25983 0l0 63.892395l-84.25983 0l0 -63.892395z" fill-rule="nonzero"/><path shape-rendering="crispEdges" fill="#91cce9" d="m505.55905 319.12073l84.25986 0l0 63.892395l-84.25986 0l0 -63.892395z" fill-rule="nonzero"/><path shape-rendering="crispEdges" fill="#f7f5eb" d="m589.8189 319.12073l84.25983 0l0 63.892395l-84.25983 0l0 -63.892395z" fill-rule="nonzero"/><path fill="#000000" d="m15.796875 227.12473l-3.796875 0l-0.921875 2.953125l-1.4375 0l3.671875 -11.375l1.203125 0l3.609375 11.375l-1.4375 0l-0.890625 -2.953125zm-3.40625 -1.25l3.015625 0l-1.5 -4.9375l-1.515625 4.9375zm14.6953125 4.203125l-1.46875 0l-4.40625 -8.5l-0.03125 8.5l-1.453125 0l0 -11.375l1.46875 0l4.40625 8.484375l0.03125 -8.484375l1.453125 0l0 11.375zm8.4296875 -2.875q0 -0.53125 -0.234375 -0.890625q-0.234375 -0.359375 -0.609375 -0.59375q-0.375 -0.25 -0.828125 -0.40625q-0.453125 -0.171875 -0.859375 -0.3125q-0.609375 -0.1875 -1.234375 -0.453125q-0.609375 -0.28125 -1.125 -0.671875q-0.515625 -0.40625 -0.84375 -0.953125q-0.3125 -0.546875 -0.3125 -1.28125q0 -0.734375 0.3125 -1.3125q0.328125 -0.578125 0.84375 -0.96875q0.53125 -0.40625 1.1875 -0.609375q0.671875 -0.203125 1.34375 -0.203125q0.75 0 1.4375 0.25q0.6875 0.234375 1.21875 0.6875q0.53125 0.4375 0.84375 1.078125q0.328125 0.625 0.34375 1.40625l-1.484375 0q-0.0625 -0.484375 -0.25 -0.890625q-0.171875 -0.40625 -0.46875 -0.6875q-0.296875 -0.296875 -0.71875 -0.453125q-0.40625 -0.15625 -0.921875 -0.15625q-0.40625 0 -0.8125 0.125q-0.390625 0.109375 -0.703125 0.34375q-0.296875 0.234375 -0.484375 0.578125q-0.1875 0.34375 -0.1875 0.796875q0.015625 0.484375 0.25 0.828125q0.25 0.34375 0.609375 0.578125q0.375 0.234375 0.8125 0.390625q0.4375 0.15625 0.8125 0.265625q0.421875 0.140625 0.84375 0.3125q0.4375 0.15625 0.828125 0.375q0.40625 0.21875 0.75 0.5q0.34375 0.265625 0.59375 0.625q0.265625 0.34375 0.40625 0.765625q0.15625 0.40625 0.15625 0.921875q0 0.765625 -0.34375 1.34375q-0.34375 0.5625 -0.890625 0.9375q-0.53125 0.375 -1.21875 0.578125q-0.671875 0.1875 -1.34375 0.1875q-0.765625 0 -1.5 -0.234375q-0.71875 -0.234375 -1.296875 -0.671875q-0.5625 -0.453125 -0.921875 -1.078125q-0.359375 -0.640625 -0.390625 -1.453125l1.484375 0q0.0625 0.53125 0.28125 0.9375q0.21875 0.40625 0.5625 0.703125q0.34375 0.28125 0.796875 0.421875q0.453125 0.140625 0.984375 0.140625q0.421875 0 0.828125 -0.09375q0.40625 -0.109375 0.71875 -0.328125q0.328125 -0.234375 0.53125 -0.5625q0.203125 -0.34375 0.203125 -0.8125zm3.6484375 -8.5l6.875 0l0 1.25l-2.71875 0l0 8.875l2.71875 0l0 1.25l-6.875 0l0 -1.25l2.671875 0l0 -8.875l-2.671875 0l0 -1.25z" fill-rule="nonzero"/><path fill="#efefef" d="m27.03357 307.36075l0 -7.578125l2.25 0q0.46875 0 0.921875 0.125q0.453125 0.109375 0.796875 0.359375q0.34375 0.25 0.546875 0.625q0.21875 0.375 0.21875 0.90625q-0.015625 0.296875 -0.109375 0.546875q-0.078125 0.25 -0.25 0.453125q-0.15625 0.1875 -0.375 0.328125q-0.203125 0.140625 -0.4375 0.25q0.296875 0.09375 0.546875 0.265625q0.25 0.15625 0.4375 0.390625q0.1875 0.21875 0.28125 0.515625q0.109375 0.28125 0.109375 0.625q0 0.53125 -0.21875 0.9375q-0.203125 0.40625 -0.546875 0.6875q-0.34375 0.265625 -0.8125 0.421875q-0.453125 0.140625 -0.9375 0.140625l-2.421875 0zm0.96875 -3.546875l0 2.734375l1.484375 0q0.296875 -0.015625 0.5625 -0.109375q0.28125 -0.09375 0.484375 -0.265625q0.21875 -0.171875 0.328125 -0.421875q0.125 -0.25 0.125 -0.5625q0.015625 -0.328125 -0.109375 -0.578125q-0.109375 -0.25 -0.3125 -0.421875q-0.1875 -0.171875 -0.453125 -0.265625q-0.265625 -0.09375 -0.578125 -0.109375l-1.53125 0zm0 -0.796875l1.34375 0q0.265625 0 0.53125 -0.078125q0.265625 -0.09375 0.46875 -0.234375q0.203125 -0.15625 0.328125 -0.375q0.125 -0.234375 0.125 -0.53125q0 -0.3125 -0.125 -0.53125q-0.125 -0.234375 -0.328125 -0.375q-0.203125 -0.140625 -0.484375 -0.203125q-0.265625 -0.078125 -0.546875 -0.078125l-1.3125 0l0 2.40625zm5.5979156 -3.65625l2.875 0l0 7.171875l1.828125 0l0 0.828125l-4.703125 0l0 -0.828125l1.90625 0l0 -6.328125l-1.90625 0l0 -0.84375zm9.941666 8.0q-0.0625 -0.109375 -0.09375 -0.265625q-0.03125 -0.171875 -0.046875 -0.34375q-0.15625 0.140625 -0.34375 0.28125q-0.171875 0.125 -0.390625 0.21875q-0.203125 0.09375 -0.453125 0.15625q-0.25 0.0625 -0.515625 0.0625q-0.453125 0 -0.8125 -0.125q-0.359375 -0.140625 -0.609375 -0.359375q-0.25 -0.21875 -0.390625 -0.515625q-0.140625 -0.3125 -0.140625 -0.671875q0 -0.46875 0.1875 -0.8125q0.1875 -0.34375 0.515625 -0.578125q0.34375 -0.234375 0.8125 -0.34375q0.484375 -0.109375 1.0625 -0.109375l1.0625 0l0 -0.453125q0 -0.25 -0.09375 -0.453125q-0.09375 -0.203125 -0.265625 -0.34375q-0.171875 -0.140625 -0.421875 -0.21875q-0.25 -0.078125 -0.5625 -0.078125q-0.28125 0 -0.515625 0.078125q-0.21875 0.0625 -0.375 0.1875q-0.15625 0.109375 -0.25 0.28125q-0.078125 0.15625 -0.078125 0.34375l-0.96875 0q0.015625 -0.3125 0.15625 -0.609375q0.15625 -0.296875 0.4375 -0.53125q0.296875 -0.234375 0.703125 -0.375q0.421875 -0.15625 0.953125 -0.15625q0.46875 0 0.875 0.125q0.421875 0.109375 0.71875 0.34375q0.296875 0.234375 0.46875 0.59375q0.171875 0.359375 0.171875 0.828125l0 2.609375q0 0.28125 0.046875 0.609375q0.0625 0.3125 0.15625 0.546875l0 0.078125l-1.0 0zm-1.703125 -0.734375q0.28125 0 0.515625 -0.0625q0.25 -0.078125 0.453125 -0.203125q0.203125 -0.125 0.34375 -0.265625q0.140625 -0.15625 0.234375 -0.328125l0 -1.140625l-0.90625 0q-0.84375 0 -1.3125 0.25q-0.453125 0.25 -0.453125 0.78125q0 0.21875 0.0625 0.390625q0.078125 0.171875 0.21875 0.3125q0.140625 0.125 0.34375 0.203125q0.21875 0.0625 0.5 0.0625zm6.7854156 0.0625q0.265625 0 0.515625 -0.078125q0.25 -0.09375 0.4375 -0.234375q0.1875 -0.15625 0.296875 -0.359375q0.125 -0.203125 0.140625 -0.4375l0.90625 0q0 0.375 -0.203125 0.71875q-0.1875 0.34375 -0.5 0.609375q-0.3125 0.25 -0.734375 0.40625q-0.40625 0.15625 -0.859375 0.15625q-0.625 0 -1.109375 -0.234375q-0.484375 -0.234375 -0.8125 -0.609375q-0.3125 -0.390625 -0.46875 -0.890625q-0.15625 -0.515625 -0.15625 -1.078125l0 -0.21875q0 -0.5625 0.15625 -1.0625q0.15625 -0.515625 0.46875 -0.90625q0.328125 -0.390625 0.8125 -0.609375q0.484375 -0.234375 1.109375 -0.234375q0.5 0 0.921875 0.15625q0.421875 0.15625 0.71875 0.4375q0.3125 0.265625 0.484375 0.640625q0.171875 0.375 0.171875 0.8125l-0.90625 0q-0.015625 -0.265625 -0.125 -0.484375q-0.09375 -0.234375 -0.28125 -0.40625q-0.1875 -0.171875 -0.4375 -0.265625q-0.25 -0.09375 -0.546875 -0.09375q-0.4375 0 -0.75 0.1875q-0.296875 0.171875 -0.484375 0.46875q-0.1875 0.28125 -0.265625 0.640625q-0.078125 0.359375 -0.078125 0.71875l0 0.21875q0 0.359375 0.078125 0.734375q0.078125 0.359375 0.265625 0.65625q0.1875 0.28125 0.484375 0.46875q0.296875 0.171875 0.75 0.171875zm5.6916656 -1.953125l-0.703125 0.671875l0 1.953125l-0.96875 0l0 -8.0l0.96875 0l0 4.90625l0.625 -0.6875l1.84375 -1.84375l1.171875 0l-2.28125 2.34375l2.625 3.28125l-1.21875 0l-2.0625 -2.625z" fill-rule="nonzero"/><path fill="#000000" d="m120.20383 304.267l-1.5 0l0 3.09375l-0.96875 0l0 -7.578125l2.21875 0q0.53125 0.015625 1.0 0.15625q0.46875 0.140625 0.8125 0.421875q0.359375 0.28125 0.5625 0.703125q0.203125 0.421875 0.203125 1.0q0 0.359375 -0.109375 0.671875q-0.109375 0.3125 -0.296875 0.5625q-0.1875 0.25 -0.453125 0.4375q-0.25 0.1875 -0.5625 0.328125l1.609375 3.234375l0 0.0625l-1.015625 0l-1.5 -3.09375zm-1.5 -0.78125l1.28125 0q0.328125 -0.015625 0.609375 -0.109375q0.28125 -0.09375 0.5 -0.265625q0.21875 -0.1875 0.34375 -0.453125q0.125 -0.265625 0.125 -0.609375q0 -0.359375 -0.125 -0.625q-0.109375 -0.28125 -0.328125 -0.46875q-0.21875 -0.1875 -0.515625 -0.28125q-0.28125 -0.09375 -0.640625 -0.09375l-1.25 0l0 2.90625zm7.8791656 3.984375q-0.59375 0 -1.09375 -0.203125q-0.484375 -0.203125 -0.84375 -0.5625q-0.359375 -0.375 -0.5625 -0.875q-0.1875 -0.5 -0.1875 -1.09375l0 -0.203125q0 -0.6875 0.21875 -1.21875q0.21875 -0.546875 0.578125 -0.921875q0.359375 -0.375 0.8125 -0.5625q0.46875 -0.203125 0.953125 -0.203125q0.609375 0 1.0625 0.21875q0.453125 0.203125 0.75 0.578125q0.3125 0.375 0.453125 0.875q0.15625 0.5 0.15625 1.09375l0 0.421875l-4.015625 0q0.015625 0.390625 0.140625 0.734375q0.140625 0.328125 0.359375 0.59375q0.234375 0.25 0.546875 0.390625q0.328125 0.140625 0.71875 0.140625q0.515625 0 0.921875 -0.203125q0.40625 -0.203125 0.671875 -0.546875l0.578125 0.453125q-0.140625 0.21875 -0.359375 0.421875q-0.203125 0.1875 -0.484375 0.34375q-0.265625 0.140625 -0.625 0.234375q-0.34375 0.09375 -0.75 0.09375zm-0.125 -5.046875q-0.296875 0 -0.5625 0.109375q-0.25 0.09375 -0.453125 0.3125q-0.203125 0.203125 -0.359375 0.5q-0.140625 0.296875 -0.1875 0.6875l3.015625 0l0 -0.078125q-0.015625 -0.28125 -0.109375 -0.546875q-0.078125 -0.28125 -0.265625 -0.5q-0.171875 -0.21875 -0.4375 -0.34375q-0.265625 -0.140625 -0.640625 -0.140625zm3.8479156 2.078125q0 -0.625 0.15625 -1.15625q0.171875 -0.53125 0.453125 -0.90625q0.296875 -0.390625 0.71875 -0.59375q0.421875 -0.21875 0.921875 -0.21875q0.515625 0 0.890625 0.171875q0.375 0.171875 0.65625 0.484375l0 -2.921875l0.953125 0l0 8.0l-0.875 0l-0.046875 -0.59375q-0.28125 0.34375 -0.671875 0.53125q-0.390625 0.171875 -0.90625 0.171875q-0.515625 0 -0.9375 -0.21875q-0.40625 -0.21875 -0.703125 -0.609375q-0.28125 -0.390625 -0.453125 -0.90625q-0.15625 -0.53125 -0.15625 -1.125l0 -0.109375zm0.96875 0.109375q0 0.40625 0.078125 0.78125q0.09375 0.359375 0.28125 0.640625q0.1875 0.28125 0.46875 0.453125q0.28125 0.15625 0.6875 0.15625q0.25 0 0.4375 -0.046875q0.203125 -0.0625 0.359375 -0.171875q0.171875 -0.109375 0.296875 -0.25q0.125 -0.15625 0.21875 -0.328125l0 -2.609375q-0.1875 -0.34375 -0.515625 -0.5625q-0.3125 -0.234375 -0.78125 -0.234375q-0.40625 0 -0.703125 0.171875q-0.28125 0.171875 -0.46875 0.453125q-0.1875 0.28125 -0.28125 0.65625q-0.078125 0.375 -0.078125 0.78125l0 0.109375z" fill-rule="nonzero"/><path fill="#000000" d="m200.47513 306.36075q-0.484375 0.5625 -1.109375 0.84375q-0.609375 0.265625 -1.359375 0.265625q-0.46875 -0.015625 -0.859375 -0.140625q-0.390625 -0.140625 -0.703125 -0.375q-0.3125 -0.25 -0.546875 -0.578125q-0.234375 -0.328125 -0.390625 -0.703125q-0.15625 -0.390625 -0.234375 -0.8125q-0.078125 -0.421875 -0.09375 -0.84375l0 -0.875q0.015625 -0.421875 0.078125 -0.84375q0.078125 -0.421875 0.21875 -0.796875q0.140625 -0.390625 0.359375 -0.71875q0.21875 -0.34375 0.515625 -0.578125q0.3125 -0.25 0.6875 -0.390625q0.390625 -0.140625 0.875 -0.140625q0.53125 0 0.96875 0.171875q0.453125 0.15625 0.78125 0.46875q0.34375 0.296875 0.546875 0.734375q0.203125 0.421875 0.25 0.953125l-0.953125 0q-0.0625 -0.328125 -0.1875 -0.59375q-0.109375 -0.28125 -0.3125 -0.484375q-0.1875 -0.203125 -0.46875 -0.3125q-0.265625 -0.109375 -0.625 -0.109375q-0.34375 0 -0.609375 0.125q-0.25 0.109375 -0.453125 0.3125q-0.203125 0.1875 -0.328125 0.453125q-0.125 0.265625 -0.21875 0.5625q-0.078125 0.28125 -0.125 0.59375q-0.03125 0.296875 -0.03125 0.578125l0 0.890625q0.015625 0.28125 0.046875 0.59375q0.046875 0.296875 0.140625 0.59375q0.09375 0.28125 0.234375 0.546875q0.15625 0.265625 0.359375 0.46875q0.203125 0.1875 0.46875 0.3125q0.28125 0.109375 0.625 0.109375q0.1875 0.015625 0.40625 0q0.21875 -0.03125 0.421875 -0.09375q0.203125 -0.0625 0.375 -0.171875q0.1875 -0.109375 0.296875 -0.28125l0.015625 -1.6875l-1.546875 0l0 -0.8125l2.46875 0l0.015625 2.765625zm5.1760406 -4.734375q0.140625 0 0.28125 0.015625q0.140625 0 0.265625 0.015625q0.140625 0.015625 0.25 0.046875q0.125 0.03125 0.1875 0.0625l-0.125 0.9375q-0.28125 -0.0625 -0.53125 -0.09375q-0.25 -0.03125 -0.53125 -0.03125q-0.671875 0 -1.09375 0.3125q-0.421875 0.3125 -0.625 0.859375l0 3.609375l-0.953125 0l0 -5.625l0.90625 0l0.046875 0.890625q0.34375 -0.46875 0.828125 -0.734375q0.484375 -0.265625 1.09375 -0.265625zm5.1916656 5.84375q-0.59375 0 -1.09375 -0.203125q-0.484375 -0.203125 -0.84375 -0.5625q-0.359375 -0.375 -0.5625 -0.875q-0.1875 -0.5 -0.1875 -1.09375l0 -0.203125q0 -0.6875 0.21875 -1.21875q0.21875 -0.546875 0.578125 -0.921875q0.359375 -0.375 0.8125 -0.5625q0.46875 -0.203125 0.953125 -0.203125q0.609375 0 1.0625 0.21875q0.453125 0.203125 0.75 0.578125q0.3125 0.375 0.453125 0.875q0.15625 0.5 0.15625 1.09375l0 0.421875l-4.015625 0q0.015625 0.390625 0.140625 0.734375q0.140625 0.328125 0.359375 0.59375q0.234375 0.25 0.546875 0.390625q0.328125 0.140625 0.71875 0.140625q0.515625 0 0.921875 -0.203125q0.40625 -0.203125 0.671875 -0.546875l0.578125 0.453125q-0.140625 0.21875 -0.359375 0.421875q-0.203125 0.1875 -0.484375 0.34375q-0.265625 0.140625 -0.625 0.234375q-0.34375 0.09375 -0.75 0.09375zm-0.125 -5.046875q-0.296875 0 -0.5625 0.109375q-0.25 0.09375 -0.453125 0.3125q-0.203125 0.203125 -0.359375 0.5q-0.140625 0.296875 -0.1875 0.6875l3.015625 0l0 -0.078125q-0.015625 -0.28125 -0.109375 -0.546875q-0.078125 -0.28125 -0.265625 -0.5q-0.171875 -0.21875 -0.4375 -0.34375q-0.265625 -0.140625 -0.640625 -0.140625zm6.5197906 5.046875q-0.59375 0 -1.09375 -0.203125q-0.484375 -0.203125 -0.84375 -0.5625q-0.359375 -0.375 -0.5625 -0.875q-0.1875 -0.5 -0.1875 -1.09375l0 -0.203125q0 -0.6875 0.21875 -1.21875q0.21875 -0.546875 0.578125 -0.921875q0.359375 -0.375 0.8125 -0.5625q0.46875 -0.203125 0.953125 -0.203125q0.609375 0 1.0625 0.21875q0.453125 0.203125 0.75 0.578125q0.3125 0.375 0.453125 0.875q0.15625 0.5 0.15625 1.09375l0 0.421875l-4.015625 0q0.015625 0.390625 0.140625 0.734375q0.140625 0.328125 0.359375 0.59375q0.234375 0.25 0.546875 0.390625q0.328125 0.140625 0.71875 0.140625q0.515625 0 0.921875 -0.203125q0.40625 -0.203125 0.671875 -0.546875l0.578125 0.453125q-0.140625 0.21875 -0.359375 0.421875q-0.203125 0.1875 -0.484375 0.34375q-0.265625 0.140625 -0.625 0.234375q-0.34375 0.09375 -0.75 0.09375zm-0.125 -5.046875q-0.296875 0 -0.5625 0.109375q-0.25 0.09375 -0.453125 0.3125q-0.203125 0.203125 -0.359375 0.5q-0.140625 0.296875 -0.1875 0.6875l3.015625 0l0 -0.078125q-0.015625 -0.28125 -0.109375 -0.546875q-0.078125 -0.28125 -0.265625 -0.5q-0.171875 -0.21875 -0.4375 -0.34375q-0.265625 -0.140625 -0.640625 -0.140625zm4.8947906 -0.6875l0.078125 0.828125q0.296875 -0.4375 0.734375 -0.6875q0.453125 -0.25 1.015625 -0.25q0.4375 0 0.796875 0.125q0.359375 0.125 0.609375 0.390625q0.265625 0.265625 0.40625 0.671875q0.140625 0.40625 0.140625 0.96875l0 3.578125l-0.96875 0l0 -3.546875q0 -0.375 -0.09375 -0.640625q-0.078125 -0.265625 -0.25 -0.421875q-0.15625 -0.15625 -0.390625 -0.234375q-0.234375 -0.078125 -0.546875 -0.078125q-0.484375 0 -0.84375 0.25q-0.359375 0.234375 -0.578125 0.640625l0 4.03125l-0.96875 0l0 -5.625l0.859375 0z" fill-rule="nonzero"/><path fill="#000000" d="m278.8657 303.59512l1.71875 -3.8125l1.09375 0l-2.359375 4.75l-0.015625 2.828125l-0.890625 0l-0.015625 -2.828125l-2.359375 -4.75l1.109375 0l1.71875 3.8125zm6.644806 3.875q-0.59375 0 -1.09375 -0.203125q-0.484375 -0.203125 -0.84375 -0.5625q-0.359375 -0.375 -0.5625 -0.875q-0.1875 -0.5 -0.1875 -1.09375l0 -0.203125q0 -0.6875 0.21875 -1.21875q0.21875 -0.546875 0.578125 -0.921875q0.359375 -0.375 0.8125 -0.5625q0.46875 -0.203125 0.953125 -0.203125q0.609375 0 1.0625 0.21875q0.453125 0.203125 0.75 0.578125q0.3125 0.375 0.453125 0.875q0.15625 0.5 0.15625 1.09375l0 0.421875l-4.015625 0q0.015625 0.390625 0.140625 0.734375q0.140625 0.328125 0.359375 0.59375q0.234375 0.25 0.546875 0.390625q0.328125 0.140625 0.71875 0.140625q0.515625 0 0.921875 -0.203125q0.40625 -0.203125 0.671875 -0.546875l0.578125 0.453125q-0.140625 0.21875 -0.359375 0.421875q-0.203125 0.1875 -0.484375 0.34375q-0.265625 0.140625 -0.625 0.234375q-0.34375 0.09375 -0.75 0.09375zm-0.125 -5.046875q-0.296875 0 -0.5625 0.109375q-0.25 0.09375 -0.453125 0.3125q-0.203125 0.203125 -0.359375 0.5q-0.140625 0.296875 -0.1875 0.6875l3.015625 0l0 -0.078125q-0.015625 -0.28125 -0.109375 -0.546875q-0.078125 -0.28125 -0.265625 -0.5q-0.171875 -0.21875 -0.4375 -0.34375q-0.265625 -0.140625 -0.640625 -0.140625zm4.1916504 -3.0625l2.875 0l0 7.171875l1.828125 0l0 0.828125l-4.703125 0l0 -0.828125l1.90625 0l0 -6.328125l-1.90625 0l0 -0.84375zm6.394806 0l2.875 0l0 7.171875l1.828125 0l0 0.828125l-4.703125 0l0 -0.828125l1.90625 0l0 -6.328125l-1.90625 0l0 -0.84375zm5.9729004 5.140625q0 -0.609375 0.171875 -1.125q0.171875 -0.53125 0.5 -0.921875q0.34375 -0.390625 0.8125 -0.609375q0.46875 -0.21875 1.0625 -0.21875q0.59375 0 1.0625 0.21875q0.484375 0.21875 0.8125 0.609375q0.34375 0.390625 0.515625 0.921875q0.171875 0.515625 0.171875 1.125l0 0.109375q0 0.609375 -0.171875 1.125q-0.171875 0.515625 -0.515625 0.90625q-0.328125 0.390625 -0.796875 0.609375q-0.46875 0.21875 -1.0625 0.21875q-0.59375 0 -1.078125 -0.21875q-0.46875 -0.21875 -0.8125 -0.609375q-0.328125 -0.390625 -0.5 -0.90625q-0.171875 -0.515625 -0.171875 -1.125l0 -0.109375zm0.953125 0.109375q0 0.40625 0.09375 0.796875q0.109375 0.375 0.3125 0.65625q0.203125 0.28125 0.5 0.453125q0.296875 0.171875 0.703125 0.171875q0.390625 0 0.6875 -0.171875q0.296875 -0.171875 0.5 -0.453125q0.203125 -0.28125 0.296875 -0.65625q0.109375 -0.390625 0.109375 -0.796875l0 -0.109375q0 -0.421875 -0.109375 -0.796875q-0.09375 -0.375 -0.296875 -0.65625q-0.203125 -0.296875 -0.5 -0.453125q-0.296875 -0.171875 -0.703125 -0.171875q-0.40625 0 -0.703125 0.171875q-0.28125 0.15625 -0.484375 0.453125q-0.203125 0.28125 -0.3125 0.65625q-0.09375 0.375 -0.09375 0.796875l0 0.109375zm6.566681 0.703125l0.109375 0.8125l0.140625 -0.8125l0.890625 -3.578125l0.625 0l0.890625 3.578125l0.15625 0.890625l0.140625 -0.890625l0.625 -3.578125l0.859375 0l-1.203125 5.625l-0.765625 0l-0.875 -3.453125l-0.140625 -0.875l-0.140625 0.875l-0.875 3.453125l-0.75 0l-1.203125 -5.625l0.859375 0l0.65625 3.578125z" fill-rule="nonzero"/><path fill="#000000" d="m367.27032 307.36075l0 -7.578125l2.25 0q0.46875 0 0.921875 0.125q0.453125 0.109375 0.796875 0.359375q0.34375 0.25 0.546875 0.625q0.21875 0.375 0.21875 0.90625q-0.015625 0.296875 -0.109375 0.546875q-0.078125 0.25 -0.25 0.453125q-0.15625 0.1875 -0.375 0.328125q-0.203125 0.140625 -0.4375 0.25q0.296875 0.09375 0.546875 0.265625q0.25 0.15625 0.4375 0.390625q0.1875 0.21875 0.28125 0.515625q0.109375 0.28125 0.109375 0.625q0 0.53125 -0.21875 0.9375q-0.203125 0.40625 -0.546875 0.6875q-0.34375 0.265625 -0.8125 0.421875q-0.453125 0.140625 -0.9375 0.140625l-2.421875 0zm0.96875 -3.546875l0 2.734375l1.484375 0q0.296875 -0.015625 0.5625 -0.109375q0.28125 -0.09375 0.484375 -0.265625q0.21875 -0.171875 0.328125 -0.421875q0.125 -0.25 0.125 -0.5625q0.015625 -0.328125 -0.109375 -0.578125q-0.109375 -0.25 -0.3125 -0.421875q-0.1875 -0.171875 -0.453125 -0.265625q-0.265625 -0.09375 -0.578125 -0.109375l-1.53125 0zm0 -0.796875l1.34375 0q0.265625 0 0.53125 -0.078125q0.265625 -0.09375 0.46875 -0.234375q0.203125 -0.15625 0.328125 -0.375q0.125 -0.234375 0.125 -0.53125q0 -0.3125 -0.125 -0.53125q-0.125 -0.234375 -0.328125 -0.375q-0.203125 -0.140625 -0.484375 -0.203125q-0.265625 -0.078125 -0.546875 -0.078125l-1.3125 0l0 2.40625zm5.597931 -3.65625l2.875 0l0 7.171875l1.828125 0l0 0.828125l-4.703125 0l0 -0.828125l1.90625 0l0 -6.328125l-1.90625 0l0 -0.84375zm9.894775 7.21875q-0.28125 0.421875 -0.703125 0.65625q-0.421875 0.234375 -0.984375 0.234375q-0.4375 0 -0.796875 -0.140625q-0.359375 -0.140625 -0.609375 -0.421875q-0.25 -0.296875 -0.390625 -0.75q-0.140625 -0.453125 -0.140625 -1.078125l0 -3.34375l0.96875 0l0 3.34375q0 0.46875 0.0625 0.765625q0.078125 0.296875 0.21875 0.484375q0.15625 0.171875 0.359375 0.25q0.203125 0.078125 0.484375 0.078125q0.59375 0 0.953125 -0.234375q0.359375 -0.25 0.53125 -0.65625l0 -4.03125l0.96875 0l0 5.625l-0.875 0l-0.046875 -0.78125zm5.222931 0.890625q-0.59375 0 -1.09375 -0.203125q-0.484375 -0.203125 -0.84375 -0.5625q-0.359375 -0.375 -0.5625 -0.875q-0.1875 -0.5 -0.1875 -1.09375l0 -0.203125q0 -0.6875 0.21875 -1.21875q0.21875 -0.546875 0.578125 -0.921875q0.359375 -0.375 0.8125 -0.5625q0.46875 -0.203125 0.953125 -0.203125q0.609375 0 1.0625 0.21875q0.453125 0.203125 0.75 0.578125q0.3125 0.375 0.453125 0.875q0.15625 0.5 0.15625 1.09375l0 0.421875l-4.015625 0q0.015625 0.390625 0.140625 0.734375q0.140625 0.328125 0.359375 0.59375q0.234375 0.25 0.546875 0.390625q0.328125 0.140625 0.71875 0.140625q0.515625 0 0.921875 -0.203125q0.40625 -0.203125 0.671875 -0.546875l0.578125 0.453125q-0.140625 0.21875 -0.359375 0.421875q-0.203125 0.1875 -0.484375 0.34375q-0.265625 0.140625 -0.625 0.234375q-0.34375 0.09375 -0.75 0.09375zm-0.125 -5.046875q-0.296875 0 -0.5625 0.109375q-0.25 0.09375 -0.453125 0.3125q-0.203125 0.203125 -0.359375 0.5q-0.140625 0.296875 -0.1875 0.6875l3.015625 0l0 -0.078125q-0.015625 -0.28125 -0.109375 -0.546875q-0.078125 -0.28125 -0.265625 -0.5q-0.171875 -0.21875 -0.4375 -0.34375q-0.265625 -0.140625 -0.640625 -0.140625z" fill-rule="nonzero"/><path fill="#000000" d="m443.0161 299.78262l1.21875 3.796875l1.34375 -3.796875l1.1875 0l0 7.578125l-0.9375 0l0 -3.015625l0.078125 -3.171875l-1.390625 4.078125l-0.5625 0l-1.28125 -3.96875l0.078125 3.0625l0 3.015625l-0.9375 0l0 -7.578125l1.203125 0zm9.035431 7.578125q-0.0625 -0.109375 -0.09375 -0.265625q-0.03125 -0.171875 -0.046875 -0.34375q-0.15625 0.140625 -0.34375 0.28125q-0.171875 0.125 -0.390625 0.21875q-0.203125 0.09375 -0.453125 0.15625q-0.25 0.0625 -0.515625 0.0625q-0.453125 0 -0.8125 -0.125q-0.359375 -0.140625 -0.609375 -0.359375q-0.25 -0.21875 -0.390625 -0.515625q-0.140625 -0.3125 -0.140625 -0.671875q0 -0.46875 0.1875 -0.8125q0.1875 -0.34375 0.515625 -0.578125q0.34375 -0.234375 0.8125 -0.34375q0.484375 -0.109375 1.0625 -0.109375l1.0625 0l0 -0.453125q0 -0.25 -0.09375 -0.453125q-0.09375 -0.203125 -0.265625 -0.34375q-0.171875 -0.140625 -0.421875 -0.21875q-0.25 -0.078125 -0.5625 -0.078125q-0.28125 0 -0.515625 0.078125q-0.21875 0.0625 -0.375 0.1875q-0.15625 0.109375 -0.25 0.28125q-0.078125 0.15625 -0.078125 0.34375l-0.96875 0q0.015625 -0.3125 0.15625 -0.609375q0.15625 -0.296875 0.4375 -0.53125q0.296875 -0.234375 0.703125 -0.375q0.421875 -0.15625 0.953125 -0.15625q0.46875 0 0.875 0.125q0.421875 0.109375 0.71875 0.34375q0.296875 0.234375 0.46875 0.59375q0.171875 0.359375 0.171875 0.828125l0 2.609375q0 0.28125 0.046875 0.609375q0.0625 0.3125 0.15625 0.546875l0 0.078125l-1.0 0zm-1.703125 -0.734375q0.28125 0 0.515625 -0.0625q0.25 -0.078125 0.453125 -0.203125q0.203125 -0.125 0.34375 -0.265625q0.140625 -0.15625 0.234375 -0.328125l0 -1.140625l-0.90625 0q-0.84375 0 -1.3125 0.25q-0.453125 0.25 -0.453125 0.78125q0 0.21875 0.0625 0.390625q0.078125 0.171875 0.21875 0.3125q0.140625 0.125 0.34375 0.203125q0.21875 0.0625 0.5 0.0625zm4.2229004 -2.125q0 -0.625 0.140625 -1.15625q0.15625 -0.53125 0.453125 -0.90625q0.296875 -0.390625 0.703125 -0.59375q0.421875 -0.21875 0.9375 -0.21875q0.53125 0 0.921875 0.1875q0.390625 0.1875 0.671875 0.53125l0.046875 -0.609375l0.875 0l0 5.5q0 0.5625 -0.1875 0.984375q-0.171875 0.4375 -0.484375 0.734375q-0.3125 0.3125 -0.75 0.46875q-0.4375 0.15625 -0.96875 0.15625q-0.21875 0 -0.5 -0.046875q-0.28125 -0.046875 -0.578125 -0.171875q-0.28125 -0.109375 -0.546875 -0.296875q-0.265625 -0.1875 -0.453125 -0.453125l0.5 -0.578125q0.171875 0.203125 0.359375 0.34375q0.1875 0.15625 0.375 0.25q0.203125 0.09375 0.390625 0.125q0.1875 0.046875 0.375 0.046875q0.34375 0 0.625 -0.109375q0.28125 -0.09375 0.46875 -0.28125q0.203125 -0.1875 0.296875 -0.46875q0.109375 -0.28125 0.109375 -0.65625l0 -0.484375q-0.28125 0.328125 -0.671875 0.5q-0.375 0.171875 -0.875 0.171875q-0.515625 0 -0.9375 -0.21875q-0.40625 -0.21875 -0.703125 -0.609375q-0.28125 -0.390625 -0.4375 -0.90625q-0.15625 -0.53125 -0.15625 -1.125l0 -0.109375zm0.953125 0.109375q0 0.40625 0.078125 0.78125q0.09375 0.359375 0.28125 0.640625q0.1875 0.28125 0.46875 0.453125q0.28125 0.15625 0.6875 0.15625q0.25 0 0.453125 -0.046875q0.203125 -0.0625 0.359375 -0.171875q0.15625 -0.109375 0.28125 -0.265625q0.125 -0.15625 0.21875 -0.328125l0 -2.578125q-0.09375 -0.1875 -0.21875 -0.328125q-0.125 -0.140625 -0.296875 -0.25q-0.15625 -0.109375 -0.359375 -0.171875q-0.1875 -0.0625 -0.421875 -0.0625q-0.40625 0 -0.703125 0.171875q-0.28125 0.171875 -0.46875 0.453125q-0.1875 0.28125 -0.28125 0.65625q-0.078125 0.375 -0.078125 0.78125l0 0.109375zm8.097931 2.859375q-0.59375 0 -1.09375 -0.203125q-0.484375 -0.203125 -0.84375 -0.5625q-0.359375 -0.375 -0.5625 -0.875q-0.1875 -0.5 -0.1875 -1.09375l0 -0.203125q0 -0.6875 0.21875 -1.21875q0.21875 -0.546875 0.578125 -0.921875q0.359375 -0.375 0.8125 -0.5625q0.46875 -0.203125 0.953125 -0.203125q0.609375 0 1.0625 0.21875q0.453125 0.203125 0.75 0.578125q0.3125 0.375 0.453125 0.875q0.15625 0.5 0.15625 1.09375l0 0.421875l-4.015625 0q0.015625 0.390625 0.140625 0.734375q0.140625 0.328125 0.359375 0.59375q0.234375 0.25 0.546875 0.390625q0.328125 0.140625 0.71875 0.140625q0.515625 0 0.921875 -0.203125q0.40625 -0.203125 0.671875 -0.546875l0.578125 0.453125q-0.140625 0.21875 -0.359375 0.421875q-0.203125 0.1875 -0.484375 0.34375q-0.265625 0.140625 -0.625 0.234375q-0.34375 0.09375 -0.75 0.09375zm-0.125 -5.046875q-0.296875 0 -0.5625 0.109375q-0.25 0.09375 -0.453125 0.3125q-0.203125 0.203125 -0.359375 0.5q-0.140625 0.296875 -0.1875 0.6875l3.015625 0l0 -0.078125q-0.015625 -0.28125 -0.109375 -0.546875q-0.078125 -0.28125 -0.265625 -0.5q-0.171875 -0.21875 -0.4375 -0.34375q-0.265625 -0.140625 -0.640625 -0.140625zm4.8947754 -0.6875l0.078125 0.828125q0.296875 -0.4375 0.734375 -0.6875q0.453125 -0.25 1.015625 -0.25q0.4375 0 0.796875 0.125q0.359375 0.125 0.609375 0.390625q0.265625 0.265625 0.40625 0.671875q0.140625 0.40625 0.140625 0.96875l0 3.578125l-0.96875 0l0 -3.546875q0 -0.375 -0.09375 -0.640625q-0.078125 -0.265625 -0.25 -0.421875q-0.15625 -0.15625 -0.390625 -0.234375q-0.234375 -0.078125 -0.546875 -0.078125q-0.484375 0 -0.84375 0.25q-0.359375 0.234375 -0.578125 0.640625l0 4.03125l-0.96875 0l0 -5.625l0.859375 0zm7.816681 -1.375l0 1.375l2.140625 0l0 0.734375l-2.140625 0l0 3.0625q0 0.328125 0.078125 0.546875q0.078125 0.203125 0.21875 0.34375q0.15625 0.125 0.34375 0.171875q0.1875 0.046875 0.40625 0.046875q0.15625 0 0.3125 -0.015625q0.171875 -0.015625 0.328125 -0.03125q0.171875 -0.03125 0.296875 -0.0625q0.140625 -0.03125 0.234375 -0.046875l0.140625 0.671875q-0.125 0.078125 -0.296875 0.140625q-0.171875 0.046875 -0.375 0.078125q-0.203125 0.046875 -0.4375 0.0625q-0.21875 0.03125 -0.4375 0.03125q-0.375 0 -0.703125 -0.109375q-0.328125 -0.109375 -0.5625 -0.34375q-0.234375 -0.234375 -0.375 -0.59375q-0.140625 -0.375 -0.140625 -0.890625l0 -3.0625l-1.484375 0l0 -0.734375l1.484375 0l0 -1.375l0.96875 0zm7.8166504 7.0q-0.0625 -0.109375 -0.09375 -0.265625q-0.03125 -0.171875 -0.046875 -0.34375q-0.15625 0.140625 -0.34375 0.28125q-0.171875 0.125 -0.390625 0.21875q-0.203125 0.09375 -0.453125 0.15625q-0.25 0.0625 -0.515625 0.0625q-0.453125 0 -0.8125 -0.125q-0.359375 -0.140625 -0.609375 -0.359375q-0.25 -0.21875 -0.390625 -0.515625q-0.140625 -0.3125 -0.140625 -0.671875q0 -0.46875 0.1875 -0.8125q0.1875 -0.34375 0.515625 -0.578125q0.34375 -0.234375 0.8125 -0.34375q0.484375 -0.109375 1.0625 -0.109375l1.0625 0l0 -0.453125q0 -0.25 -0.09375 -0.453125q-0.09375 -0.203125 -0.265625 -0.34375q-0.171875 -0.140625 -0.421875 -0.21875q-0.25 -0.078125 -0.5625 -0.078125q-0.28125 0 -0.515625 0.078125q-0.21875 0.0625 -0.375 0.1875q-0.15625 0.109375 -0.25 0.28125q-0.078125 0.15625 -0.078125 0.34375l-0.96875 0q0.015625 -0.3125 0.15625 -0.609375q0.15625 -0.296875 0.4375 -0.53125q0.296875 -0.234375 0.703125 -0.375q0.421875 -0.15625 0.953125 -0.15625q0.46875 0 0.875 0.125q0.421875 0.109375 0.71875 0.34375q0.296875 0.234375 0.46875 0.59375q0.171875 0.359375 0.171875 0.828125l0 2.609375q0 0.28125 0.046875 0.609375q0.0625 0.3125 0.15625 0.546875l0 0.078125l-1.0 0zm-1.703125 -0.734375q0.28125 0 0.515625 -0.0625q0.25 -0.078125 0.453125 -0.203125q0.203125 -0.125 0.34375 -0.265625q0.140625 -0.15625 0.234375 -0.328125l0 -1.140625l-0.90625 0q-0.84375 0 -1.3125 0.25q-0.453125 0.25 -0.453125 0.78125q0 0.21875 0.0625 0.390625q0.078125 0.171875 0.21875 0.3125q0.140625 0.125 0.34375 0.203125q0.21875 0.0625 0.5 0.0625z" fill-rule="nonzero"/><path fill="#000000" d="m540.7119 305.0795q-0.0625 0.53125 -0.265625 0.96875q-0.203125 0.4375 -0.53125 0.75q-0.328125 0.3125 -0.78125 0.5q-0.4375 0.171875 -0.984375 0.171875q-0.46875 0 -0.859375 -0.125q-0.375 -0.140625 -0.671875 -0.375q-0.296875 -0.234375 -0.515625 -0.546875q-0.21875 -0.328125 -0.359375 -0.703125q-0.140625 -0.375 -0.21875 -0.78125q-0.0625 -0.40625 -0.0625 -0.828125l0 -1.0625q0 -0.421875 0.0625 -0.828125q0.078125 -0.421875 0.21875 -0.796875q0.140625 -0.375 0.359375 -0.6875q0.21875 -0.328125 0.515625 -0.5625q0.296875 -0.234375 0.671875 -0.359375q0.390625 -0.140625 0.859375 -0.140625q0.5625 0 1.015625 0.1875q0.453125 0.171875 0.765625 0.5q0.328125 0.3125 0.515625 0.765625q0.203125 0.4375 0.265625 0.984375l-0.96875 0q-0.046875 -0.34375 -0.15625 -0.640625q-0.109375 -0.296875 -0.3125 -0.515625q-0.1875 -0.234375 -0.46875 -0.359375q-0.28125 -0.125 -0.65625 -0.125q-0.34375 0 -0.609375 0.109375q-0.25 0.109375 -0.453125 0.3125q-0.1875 0.1875 -0.3125 0.4375q-0.125 0.25 -0.203125 0.546875q-0.078125 0.28125 -0.109375 0.578125q-0.03125 0.296875 -0.03125 0.578125l0 1.078125q0 0.28125 0.03125 0.578125q0.03125 0.296875 0.109375 0.59375q0.078125 0.28125 0.203125 0.53125q0.125 0.25 0.3125 0.453125q0.203125 0.1875 0.453125 0.3125q0.265625 0.109375 0.609375 0.109375q0.375 0 0.65625 -0.125q0.28125 -0.125 0.46875 -0.328125q0.203125 -0.21875 0.3125 -0.515625q0.109375 -0.296875 0.15625 -0.640625l0.96875 0zm3.5510254 0.28125l0.25 0.6875l1.71875 -4.3125l1.078125 0l-2.859375 6.5q-0.09375 0.21875 -0.25 0.453125q-0.15625 0.25 -0.375 0.453125q-0.203125 0.21875 -0.5 0.359375q-0.296875 0.140625 -0.671875 0.140625q-0.0625 0 -0.15625 -0.015625q-0.078125 0 -0.171875 -0.015625q-0.078125 -0.015625 -0.15625 -0.03125q-0.0625 -0.015625 -0.109375 -0.03125l0.15625 -0.78125q0.03125 0 0.09375 0q0.0625 0.015625 0.125 0.015625q0.078125 0 0.140625 0q0.0625 0.015625 0.09375 0.015625q0.203125 0 0.359375 -0.109375q0.171875 -0.109375 0.296875 -0.265625q0.125 -0.15625 0.21875 -0.3125q0.09375 -0.15625 0.140625 -0.265625l0.390625 -0.75l-2.421875 -5.359375l1.078125 0l1.53125 3.625zm8.0354 2.0q-0.0625 -0.109375 -0.09375 -0.265625q-0.03125 -0.171875 -0.046875 -0.34375q-0.15625 0.140625 -0.34375 0.28125q-0.171875 0.125 -0.390625 0.21875q-0.203125 0.09375 -0.453125 0.15625q-0.25 0.0625 -0.515625 0.0625q-0.453125 0 -0.8125 -0.125q-0.359375 -0.140625 -0.609375 -0.359375q-0.25 -0.21875 -0.390625 -0.515625q-0.140625 -0.3125 -0.140625 -0.671875q0 -0.46875 0.1875 -0.8125q0.1875 -0.34375 0.515625 -0.578125q0.34375 -0.234375 0.8125 -0.34375q0.484375 -0.109375 1.0625 -0.109375l1.0625 0l0 -0.453125q0 -0.25 -0.09375 -0.453125q-0.09375 -0.203125 -0.265625 -0.34375q-0.171875 -0.140625 -0.421875 -0.21875q-0.25 -0.078125 -0.5625 -0.078125q-0.28125 0 -0.515625 0.078125q-0.21875 0.0625 -0.375 0.1875q-0.15625 0.109375 -0.25 0.28125q-0.078125 0.15625 -0.078125 0.34375l-0.96875 0q0.015625 -0.3125 0.15625 -0.609375q0.15625 -0.296875 0.4375 -0.53125q0.296875 -0.234375 0.703125 -0.375q0.421875 -0.15625 0.953125 -0.15625q0.46875 0 0.875 0.125q0.421875 0.109375 0.71875 0.34375q0.296875 0.234375 0.46875 0.59375q0.171875 0.359375 0.171875 0.828125l0 2.609375q0 0.28125 0.046875 0.609375q0.0625 0.3125 0.15625 0.546875l0 0.078125l-1.0 0zm-1.703125 -0.734375q0.28125 0 0.515625 -0.0625q0.25 -0.078125 0.453125 -0.203125q0.203125 -0.125 0.34375 -0.265625q0.140625 -0.15625 0.234375 -0.328125l0 -1.140625l-0.90625 0q-0.84375 0 -1.3125 0.25q-0.453125 0.25 -0.453125 0.78125q0 0.21875 0.0625 0.390625q0.078125 0.171875 0.21875 0.3125q0.140625 0.125 0.34375 0.203125q0.21875 0.0625 0.5 0.0625zm5.2541504 -4.890625l0.078125 0.828125q0.296875 -0.4375 0.734375 -0.6875q0.453125 -0.25 1.015625 -0.25q0.4375 0 0.796875 0.125q0.359375 0.125 0.609375 0.390625q0.265625 0.265625 0.40625 0.671875q0.140625 0.40625 0.140625 0.96875l0 3.578125l-0.96875 0l0 -3.546875q0 -0.375 -0.09375 -0.640625q-0.078125 -0.265625 -0.25 -0.421875q-0.15625 -0.15625 -0.390625 -0.234375q-0.234375 -0.078125 -0.546875 -0.078125q-0.484375 0 -0.84375 0.25q-0.359375 0.234375 -0.578125 0.640625l0 4.03125l-0.96875 0l0 -5.625l0.859375 0z" fill-rule="nonzero"/><path fill="#000000" d="m620.6181 305.31387l0.578125 -5.53125l0.921875 0l-0.921875 7.578125l-0.984375 0l-0.984375 -5.703125l-0.96875 5.703125l-1.0 0l-0.921875 -7.578125l0.921875 0l0.578125 5.53125l0.96875 -5.53125l0.84375 0l0.96875 5.53125zm3.6135254 -2.75q0.296875 -0.4375 0.734375 -0.6875q0.4375 -0.25 1.0 -0.25q0.4375 0 0.796875 0.125q0.359375 0.125 0.609375 0.40625q0.265625 0.265625 0.40625 0.6875q0.140625 0.40625 0.140625 0.96875l0 3.546875l-0.96875 0l0 -3.546875q0 -0.703125 -0.328125 -1.03125q-0.328125 -0.34375 -0.953125 -0.34375q-0.453125 0 -0.828125 0.234375q-0.375 0.21875 -0.609375 0.59375l0 4.09375l-0.96875 0l0 -8.0l0.96875 0l0 3.203125zm5.5822754 -0.828125l2.875 0l0 4.796875l1.828125 0l0 0.828125l-4.703125 0l0 -0.828125l1.90625 0l0 -3.96875l-1.90625 0l0 -0.828125zm1.78125 -1.484375q0 -0.234375 0.140625 -0.390625q0.140625 -0.171875 0.4375 -0.171875q0.28125 0 0.421875 0.171875q0.15625 0.15625 0.15625 0.390625q0 0.234375 -0.15625 0.390625q-0.140625 0.15625 -0.421875 0.15625q-0.296875 0 -0.4375 -0.15625q-0.140625 -0.15625 -0.140625 -0.390625zm6.7385864 0.109375l0 1.375l2.140625 0l0 0.734375l-2.140625 0l0 3.0625q0 0.328125 0.078125 0.546875q0.078125 0.203125 0.21875 0.34375q0.15625 0.125 0.34375 0.171875q0.1875 0.046875 0.40625 0.046875q0.15625 0 0.3125 -0.015625q0.171875 -0.015625 0.328125 -0.03125q0.171875 -0.03125 0.296875 -0.0625q0.140625 -0.03125 0.234375 -0.046875l0.140625 0.671875q-0.125 0.078125 -0.296875 0.140625q-0.171875 0.046875 -0.375 0.078125q-0.203125 0.046875 -0.4375 0.0625q-0.21875 0.03125 -0.4375 0.03125q-0.375 0 -0.703125 -0.109375q-0.328125 -0.109375 -0.5625 -0.34375q-0.234375 -0.234375 -0.375 -0.59375q-0.140625 -0.375 -0.140625 -0.890625l0 -3.0625l-1.484375 0l0 -0.734375l1.484375 0l0 -1.375l0.96875 0zm6.5979004 7.109375q-0.59375 0 -1.09375 -0.203125q-0.484375 -0.203125 -0.84375 -0.5625q-0.359375 -0.375 -0.5625 -0.875q-0.1875 -0.5 -0.1875 -1.09375l0 -0.203125q0 -0.6875 0.21875 -1.21875q0.21875 -0.546875 0.578125 -0.921875q0.359375 -0.375 0.8125 -0.5625q0.46875 -0.203125 0.953125 -0.203125q0.609375 0 1.0625 0.21875q0.453125 0.203125 0.75 0.578125q0.3125 0.375 0.453125 0.875q0.15625 0.5 0.15625 1.09375l0 0.421875l-4.015625 0q0.015625 0.390625 0.140625 0.734375q0.140625 0.328125 0.359375 0.59375q0.234375 0.25 0.546875 0.390625q0.328125 0.140625 0.71875 0.140625q0.515625 0 0.921875 -0.203125q0.40625 -0.203125 0.671875 -0.546875l0.578125 0.453125q-0.140625 0.21875 -0.359375 0.421875q-0.203125 0.1875 -0.484375 0.34375q-0.265625 0.140625 -0.625 0.234375q-0.34375 0.09375 -0.75 0.09375zm-0.125 -5.046875q-0.296875 0 -0.5625 0.109375q-0.25 0.09375 -0.453125 0.3125q-0.203125 0.203125 -0.359375 0.5q-0.140625 0.296875 -0.1875 0.6875l3.015625 0l0 -0.078125q-0.015625 -0.28125 -0.109375 -0.546875q-0.078125 -0.28125 -0.265625 -0.5q-0.171875 -0.21875 -0.4375 -0.34375q-0.265625 -0.140625 -0.640625 -0.140625z" fill-rule="nonzero"/><path shape-rendering="crispEdges" fill="#c9cac0" d="m0 31.766405l126.391075 0l0 54.960632l-126.391075 0l0 -54.960632z" fill-rule="nonzero"/><path shape-rendering="crispEdges" fill="#6c6d6c" d="m126.391075 31.766405l126.391075 0l0 54.960632l-126.391075 0l0 -54.960632z" fill-rule="nonzero"/><path shape-rendering="crispEdges" fill="#292b2d" d="m0 86.727036l126.391075 0l0 54.960632l-126.391075 0l0 -54.960632z" fill-rule="nonzero"/><path shape-rendering="crispEdges" fill="#d7d7cc" d="m126.391075 86.727036l126.391075 0l0 54.960632l-126.391075 0l0 -54.960632z" fill-rule="nonzero"/><path shape-rendering="crispEdges" fill="#fbf9ee" d="m0 141.68767l126.391075 0l0 54.960632l-126.391075 0l0 -54.960632z" fill-rule="nonzero"/><path shape-rendering="crispEdges" fill="#5fb1dc" d="m126.391075 141.68767l126.391075 0l0 54.960632l-126.391075 0l0 -54.960632z" fill-rule="nonzero"/><path stroke="#9e9e9e" stroke-width="1.0" stroke-linecap="butt" d="m0 86.22835l0 54.960632" fill-rule="nonzero"/><path stroke="#9e9e9e" stroke-width="1.0" stroke-linecap="butt" d="m252.78215 31.267717l0 54.960632" fill-rule="nonzero"/><path fill="#000000" d="m18.03125 8.985779l-3.515625 0l0 10.140625l-1.40625 0l0 -10.140625l-3.515625 0l0 -1.2343755l8.4375 0l0 1.2343755zm8.1953125 4.875l-4.75 0l0 4.03125l5.53125 0l0 1.234375l-6.984375 0l0 -11.375l6.921875 0l0 1.2343755l-5.46875 0l0 3.65625l4.75 0l0 1.21875zm7.1015625 0.625l-2.265625 0l0 4.640625l-1.4375 0l0 -11.375l3.328125 0q0.796875 0.015625 1.5 0.234375q0.703125 0.20312548 1.234375 0.6250005q0.53125 0.421875 0.828125 1.0625q0.296875 0.625 0.296875 1.484375q0 0.5625 -0.15625 1.03125q-0.15625 0.453125 -0.4375 0.828125q-0.28125 0.375 -0.671875 0.671875q-0.390625 0.28125 -0.859375 0.484375l2.40625 4.859375l0 0.09375l-1.53125 0l-2.234375 -4.640625zm-2.265625 -1.1875l1.9375 0q0.484375 -0.015625 0.90625 -0.15625q0.4375 -0.140625 0.75 -0.40625q0.328125 -0.28125 0.515625 -0.671875q0.1875 -0.40625 0.1875 -0.921875q0 -0.546875 -0.1875 -0.953125q-0.171875 -0.40625 -0.5 -0.6875q-0.3125 -0.28125 -0.75 -0.421875q-0.4375 -0.140625 -0.96875 -0.140625l-1.890625 0l0 4.359375zm9.6953125 -5.5468755l1.84375 5.6875005l2.0 -5.6875005l1.796875 0l0 11.375l-1.40625 0l0 -4.546875l0.125 -4.75l-2.109375 6.125l-0.828125 0l-1.921875 -5.953125l0.109375 4.578125l0 4.546875l-1.40625 0l0 -11.375l1.796875 0z" fill-rule="nonzero"/><path fill="#434343" d="m36.346584 71.62328l-3.15625 0l0 3.34375l-0.96875 0l0 -7.578125l4.640625 0l0 0.828125l-3.671875 0l0 2.59375l3.15625 0l0 0.8125zm1.9104156 0.484375q0 -0.609375 0.171875 -1.125q0.171875 -0.53125 0.5 -0.921875q0.34375 -0.390625 0.8125 -0.609375q0.46875 -0.21875 1.0625 -0.21875q0.59375 0 1.0625 0.21875q0.484375 0.21875 0.8125 0.609375q0.34375 0.390625 0.515625 0.921875q0.171875 0.515625 0.171875 1.125l0 0.109375q0 0.609375 -0.171875 1.125q-0.171875 0.515625 -0.515625 0.90625q-0.328125 0.390625 -0.796875 0.609375q-0.46875 0.21875 -1.0625 0.21875q-0.59375 0 -1.078125 -0.21875q-0.46875 -0.21875 -0.8125 -0.609375q-0.328125 -0.390625 -0.5 -0.90625q-0.171875 -0.515625 -0.171875 -1.125l0 -0.109375zm0.953125 0.109375q0 0.40625 0.09375 0.796875q0.109375 0.375 0.3125 0.65625q0.203125 0.28125 0.5 0.453125q0.296875 0.171875 0.703125 0.171875q0.390625 0 0.6875 -0.171875q0.296875 -0.171875 0.5 -0.453125q0.203125 -0.28125 0.296875 -0.65625q0.109375 -0.390625 0.109375 -0.796875l0 -0.109375q0 -0.421875 -0.109375 -0.796875q-0.09375 -0.375 -0.296875 -0.65625q-0.203125 -0.296875 -0.5 -0.453125q-0.296875 -0.171875 -0.703125 -0.171875q-0.40625 0 -0.703125 0.171875q-0.28125 0.15625 -0.484375 0.453125q-0.203125 0.28125 -0.3125 0.65625q-0.09375 0.375 -0.09375 0.796875l0 0.109375zm9.394791 -2.984375q0.140625 0 0.28125 0.015625q0.140625 0 0.265625 0.015625q0.140625 0.015625 0.25 0.046875q0.125 0.03125 0.1875 0.0625l-0.125 0.9375q-0.28125 -0.0625 -0.53125 -0.09375q-0.25 -0.03125 -0.53125 -0.03125q-0.671875 0 -1.09375 0.3125q-0.421875 0.3125 -0.625 0.859375l0 3.609375l-0.953125 0l0 -5.625l0.90625 0l0.046875 0.890625q0.34375 -0.46875 0.828125 -0.734375q0.484375 -0.265625 1.09375 -0.265625zm5.1916656 5.84375q-0.59375 0 -1.09375 -0.203125q-0.484375 -0.203125 -0.84375 -0.5625q-0.359375 -0.375 -0.5625 -0.875q-0.1875 -0.5 -0.1875 -1.09375l0 -0.203125q0 -0.6875 0.21875 -1.21875q0.21875 -0.546875 0.578125 -0.921875q0.359375 -0.375 0.8125 -0.5625q0.46875 -0.203125 0.953125 -0.203125q0.609375 0 1.0625 0.21875q0.453125 0.203125 0.75 0.578125q0.3125 0.375 0.453125 0.875q0.15625 0.5 0.15625 1.09375l0 0.421875l-4.015625 0q0.015625 0.390625 0.140625 0.734375q0.140625 0.328125 0.359375 0.59375q0.234375 0.25 0.546875 0.390625q0.328125 0.140625 0.71875 0.140625q0.515625 0 0.921875 -0.203125q0.40625 -0.203125 0.671875 -0.546875l0.578125 0.453125q-0.140625 0.21875 -0.359375 0.421875q-0.203125 0.1875 -0.484375 0.34375q-0.265625 0.140625 -0.625 0.234375q-0.34375 0.09375 -0.75 0.09375zm-0.125 -5.046875q-0.296875 0 -0.5625 0.109375q-0.25 0.09375 -0.453125 0.3125q-0.203125 0.203125 -0.359375 0.5q-0.140625 0.296875 -0.1875 0.6875l3.015625 0l0 -0.078125q-0.015625 -0.28125 -0.109375 -0.546875q-0.078125 -0.28125 -0.265625 -0.5q-0.171875 -0.21875 -0.4375 -0.34375q-0.265625 -0.140625 -0.640625 -0.140625zm3.8635406 2.078125q0 -0.625 0.140625 -1.15625q0.15625 -0.53125 0.453125 -0.90625q0.296875 -0.390625 0.703125 -0.59375q0.421875 -0.21875 0.9375 -0.21875q0.53125 0 0.921875 0.1875q0.390625 0.1875 0.671875 0.53125l0.046875 -0.609375l0.875 0l0 5.5q0 0.5625 -0.1875 0.984375q-0.171875 0.4375 -0.484375 0.734375q-0.3125 0.3125 -0.75 0.46875q-0.4375 0.15625 -0.96875 0.15625q-0.21875 0 -0.5 -0.046875q-0.28125 -0.046875 -0.578125 -0.171875q-0.28125 -0.109375 -0.546875 -0.296875q-0.265625 -0.1875 -0.453125 -0.453125l0.5 -0.578125q0.171875 0.203125 0.359375 0.34375q0.1875 0.15625 0.375 0.25q0.203125 0.09375 0.390625 0.125q0.1875 0.046875 0.375 0.046875q0.34375 0 0.625 -0.109375q0.28125 -0.09375 0.46875 -0.28125q0.203125 -0.1875 0.296875 -0.46875q0.109375 -0.28125 0.109375 -0.65625l0 -0.484375q-0.28125 0.328125 -0.671875 0.5q-0.375 0.171875 -0.875 0.171875q-0.515625 0 -0.9375 -0.21875q-0.40625 -0.21875 -0.703125 -0.609375q-0.28125 -0.390625 -0.4375 -0.90625q-0.15625 -0.53125 -0.15625 -1.125l0 -0.109375zm0.953125 0.109375q0 0.40625 0.078125 0.78125q0.09375 0.359375 0.28125 0.640625q0.1875 0.28125 0.46875 0.453125q0.28125 0.15625 0.6875 0.15625q0.25 0 0.453125 -0.046875q0.203125 -0.0625 0.359375 -0.171875q0.15625 -0.109375 0.28125 -0.265625q0.125 -0.15625 0.21875 -0.328125l0 -2.578125q-0.09375 -0.1875 -0.21875 -0.328125q-0.125 -0.140625 -0.296875 -0.25q-0.15625 -0.109375 -0.359375 -0.171875q-0.1875 -0.0625 -0.421875 -0.0625q-0.40625 0 -0.703125 0.171875q-0.28125 0.171875 -0.46875 0.453125q-0.1875 0.28125 -0.28125 0.65625q-0.078125 0.375 -0.078125 0.78125l0 0.109375zm9.301044 -2.984375q0.140625 0 0.28125 0.015625q0.140625 0 0.265625 0.015625q0.140625 0.015625 0.25 0.046875q0.125 0.03125 0.1875 0.0625l-0.125 0.9375q-0.28125 -0.0625 -0.53125 -0.09375q-0.25 -0.03125 -0.53125 -0.03125q-0.671875 0 -1.09375 0.3125q-0.421875 0.3125 -0.625 0.859375l0 3.609375l-0.953125 0l0 -5.625l0.90625 0l0.046875 0.890625q0.34375 -0.46875 0.828125 -0.734375q0.484375 -0.265625 1.09375 -0.265625zm2.4416656 2.875q0 -0.609375 0.171875 -1.125q0.171875 -0.53125 0.5 -0.921875q0.34375 -0.390625 0.8125 -0.609375q0.46875 -0.21875 1.0625 -0.21875q0.59375 0 1.0625 0.21875q0.484375 0.21875 0.8125 0.609375q0.34375 0.390625 0.515625 0.921875q0.171875 0.515625 0.171875 1.125l0 0.109375q0 0.609375 -0.171875 1.125q-0.171875 0.515625 -0.515625 0.90625q-0.328125 0.390625 -0.796875 0.609375q-0.46875 0.21875 -1.0625 0.21875q-0.59375 0 -1.078125 -0.21875q-0.46875 -0.21875 -0.8125 -0.609375q-0.328125 -0.390625 -0.5 -0.90625q-0.171875 -0.515625 -0.171875 -1.125l0 -0.109375zm0.953125 0.109375q0 0.40625 0.09375 0.796875q0.109375 0.375 0.3125 0.65625q0.203125 0.28125 0.5 0.453125q0.296875 0.171875 0.703125 0.171875q0.390625 0 0.6875 -0.171875q0.296875 -0.171875 0.5 -0.453125q0.203125 -0.28125 0.296875 -0.65625q0.109375 -0.390625 0.109375 -0.796875l0 -0.109375q0 -0.421875 -0.109375 -0.796875q-0.09375 -0.375 -0.296875 -0.65625q-0.203125 -0.296875 -0.5 -0.453125q-0.296875 -0.171875 -0.703125 -0.171875q-0.40625 0 -0.703125 0.171875q-0.28125 0.15625 -0.484375 0.453125q-0.203125 0.28125 -0.3125 0.65625q-0.09375 0.375 -0.09375 0.796875l0 0.109375zm9.363541 1.96875q-0.28125 0.421875 -0.703125 0.65625q-0.421875 0.234375 -0.984375 0.234375q-0.4375 0 -0.796875 -0.140625q-0.359375 -0.140625 -0.609375 -0.421875q-0.25 -0.296875 -0.390625 -0.75q-0.140625 -0.453125 -0.140625 -1.078125l0 -3.34375l0.96875 0l0 3.34375q0 0.46875 0.0625 0.765625q0.078125 0.296875 0.21875 0.484375q0.15625 0.171875 0.359375 0.25q0.203125 0.078125 0.484375 0.078125q0.59375 0 0.953125 -0.234375q0.359375 -0.25 0.53125 -0.65625l0 -4.03125l0.96875 0l0 5.625l-0.875 0l-0.046875 -0.78125zm3.5979156 -4.84375l0.078125 0.828125q0.296875 -0.4375 0.734375 -0.6875q0.453125 -0.25 1.015625 -0.25q0.4375 0 0.796875 0.125q0.359375 0.125 0.609375 0.390625q0.265625 0.265625 0.40625 0.671875q0.140625 0.40625 0.140625 0.96875l0 3.578125l-0.96875 0l0 -3.546875q0 -0.375 -0.09375 -0.640625q-0.078125 -0.265625 -0.25 -0.421875q-0.15625 -0.15625 -0.390625 -0.234375q-0.234375 -0.078125 -0.546875 -0.078125q-0.484375 0 -0.84375 0.25q-0.359375 0.234375 -0.578125 0.640625l0 4.03125l-0.96875 0l0 -5.625l0.859375 0zm5.3479156 2.765625q0 -0.625 0.15625 -1.15625q0.171875 -0.53125 0.453125 -0.90625q0.296875 -0.390625 0.71875 -0.59375q0.421875 -0.21875 0.921875 -0.21875q0.515625 0 0.890625 0.171875q0.375 0.171875 0.65625 0.484375l0 -2.921875l0.953125 0l0 8.0l-0.875 0l-0.046875 -0.59375q-0.28125 0.34375 -0.671875 0.53125q-0.390625 0.171875 -0.90625 0.171875q-0.515625 0 -0.9375 -0.21875q-0.40625 -0.21875 -0.703125 -0.609375q-0.28125 -0.390625 -0.453125 -0.90625q-0.15625 -0.53125 -0.15625 -1.125l0 -0.109375zm0.96875 0.109375q0 0.40625 0.078125 0.78125q0.09375 0.359375 0.28125 0.640625q0.1875 0.28125 0.46875 0.453125q0.28125 0.15625 0.6875 0.15625q0.25 0 0.4375 -0.046875q0.203125 -0.0625 0.359375 -0.171875q0.171875 -0.109375 0.296875 -0.25q0.125 -0.15625 0.21875 -0.328125l0 -2.609375q-0.1875 -0.34375 -0.515625 -0.5625q-0.3125 -0.234375 -0.78125 -0.234375q-0.40625 0 -0.703125 0.171875q-0.28125 0.171875 -0.46875 0.453125q-0.1875 0.28125 -0.28125 0.65625q-0.078125 0.375 -0.078125 0.78125l0 0.109375z" fill-rule="nonzero"/><path fill="#efefef" d="m165.68506 73.04516q0 -0.34375 -0.171875 -0.578125q-0.15625 -0.234375 -0.40625 -0.390625q-0.25 -0.171875 -0.546875 -0.28125q-0.296875 -0.109375 -0.578125 -0.203125q-0.390625 -0.125 -0.8125 -0.3125q-0.40625 -0.1875 -0.75 -0.453125q-0.34375 -0.265625 -0.5625 -0.625q-0.203125 -0.359375 -0.203125 -0.84375q0 -0.5 0.203125 -0.875q0.21875 -0.390625 0.5625 -0.65625q0.359375 -0.265625 0.796875 -0.40625q0.4375 -0.140625 0.890625 -0.140625q0.5 0 0.953125 0.171875q0.453125 0.15625 0.8125 0.453125q0.359375 0.296875 0.5625 0.71875q0.21875 0.421875 0.234375 0.953125l-1.0 0q-0.03125 -0.328125 -0.15625 -0.59375q-0.125 -0.28125 -0.328125 -0.46875q-0.1875 -0.1875 -0.46875 -0.296875q-0.265625 -0.109375 -0.609375 -0.109375q-0.28125 0 -0.546875 0.078125q-0.25 0.078125 -0.453125 0.234375q-0.203125 0.15625 -0.328125 0.390625q-0.125 0.21875 -0.125 0.53125q0 0.328125 0.15625 0.5625q0.171875 0.21875 0.421875 0.375q0.25 0.15625 0.53125 0.265625q0.28125 0.09375 0.546875 0.171875q0.28125 0.09375 0.5625 0.203125q0.28125 0.109375 0.546875 0.265625q0.265625 0.140625 0.5 0.328125q0.234375 0.171875 0.40625 0.40625q0.171875 0.234375 0.265625 0.515625q0.09375 0.265625 0.09375 0.609375q0 0.5 -0.234375 0.890625q-0.21875 0.375 -0.578125 0.625q-0.359375 0.25 -0.8125 0.390625q-0.453125 0.125 -0.90625 0.125q-0.5 0 -0.984375 -0.15625q-0.484375 -0.15625 -0.875 -0.453125q-0.375 -0.296875 -0.625 -0.71875q-0.234375 -0.421875 -0.25 -0.96875l0.984375 0q0.046875 0.359375 0.1875 0.640625q0.15625 0.265625 0.375 0.453125q0.234375 0.1875 0.53125 0.28125q0.296875 0.09375 0.65625 0.09375q0.28125 0 0.546875 -0.0625q0.28125 -0.078125 0.484375 -0.21875q0.21875 -0.15625 0.359375 -0.375q0.140625 -0.234375 0.140625 -0.546875zm4.9104156 2.03125q-0.59375 0 -1.09375 -0.203125q-0.484375 -0.203125 -0.84375 -0.5625q-0.359375 -0.375 -0.5625 -0.875q-0.1875 -0.5 -0.1875 -1.09375l0 -0.203125q0 -0.6875 0.21875 -1.21875q0.21875 -0.546875 0.578125 -0.921875q0.359375 -0.375 0.8125 -0.5625q0.46875 -0.203125 0.953125 -0.203125q0.609375 0 1.0625 0.21875q0.453125 0.203125 0.75 0.578125q0.3125 0.375 0.453125 0.875q0.15625 0.5 0.15625 1.09375l0 0.421875l-4.015625 0q0.015625 0.390625 0.140625 0.734375q0.140625 0.328125 0.359375 0.59375q0.234375 0.25 0.546875 0.390625q0.328125 0.140625 0.71875 0.140625q0.515625 0 0.921875 -0.203125q0.40625 -0.203125 0.671875 -0.546875l0.578125 0.453125q-0.140625 0.21875 -0.359375 0.421875q-0.203125 0.1875 -0.484375 0.34375q-0.265625 0.140625 -0.625 0.234375q-0.34375 0.09375 -0.75 0.09375zm-0.125 -5.046875q-0.296875 0 -0.5625 0.109375q-0.25 0.09375 -0.453125 0.3125q-0.203125 0.203125 -0.359375 0.5q-0.140625 0.296875 -0.1875 0.6875l3.015625 0l0 -0.078125q-0.015625 -0.28125 -0.109375 -0.546875q-0.078125 -0.28125 -0.265625 -0.5q-0.171875 -0.21875 -0.4375 -0.34375q-0.265625 -0.140625 -0.640625 -0.140625zm4.1916656 -3.0625l2.875 0l0 7.171875l1.828125 0l0 0.828125l-4.703125 0l0 -0.828125l1.90625 0l0 -6.328125l-1.90625 0l0 -0.84375zm8.722916 8.109375q-0.59375 0 -1.09375 -0.203125q-0.484375 -0.203125 -0.84375 -0.5625q-0.359375 -0.375 -0.5625 -0.875q-0.1875 -0.5 -0.1875 -1.09375l0 -0.203125q0 -0.6875 0.21875 -1.21875q0.21875 -0.546875 0.578125 -0.921875q0.359375 -0.375 0.8125 -0.5625q0.46875 -0.203125 0.953125 -0.203125q0.609375 0 1.0625 0.21875q0.453125 0.203125 0.75 0.578125q0.3125 0.375 0.453125 0.875q0.15625 0.5 0.15625 1.09375l0 0.421875l-4.015625 0q0.015625 0.390625 0.140625 0.734375q0.140625 0.328125 0.359375 0.59375q0.234375 0.25 0.546875 0.390625q0.328125 0.140625 0.71875 0.140625q0.515625 0 0.921875 -0.203125q0.40625 -0.203125 0.671875 -0.546875l0.578125 0.453125q-0.140625 0.21875 -0.359375 0.421875q-0.203125 0.1875 -0.484375 0.34375q-0.265625 0.140625 -0.625 0.234375q-0.34375 0.09375 -0.75 0.09375zm-0.125 -5.046875q-0.296875 0 -0.5625 0.109375q-0.25 0.09375 -0.453125 0.3125q-0.203125 0.203125 -0.359375 0.5q-0.140625 0.296875 -0.1875 0.6875l3.015625 0l0 -0.078125q-0.015625 -0.28125 -0.109375 -0.546875q-0.078125 -0.28125 -0.265625 -0.5q-0.171875 -0.21875 -0.4375 -0.34375q-0.265625 -0.140625 -0.640625 -0.140625zm6.4260406 4.265625q0.265625 0 0.515625 -0.078125q0.25 -0.09375 0.4375 -0.234375q0.1875 -0.15625 0.296875 -0.359375q0.125 -0.203125 0.140625 -0.4375l0.90625 0q0 0.375 -0.203125 0.71875q-0.1875 0.34375 -0.5 0.609375q-0.3125 0.25 -0.734375 0.40625q-0.40625 0.15625 -0.859375 0.15625q-0.625 0 -1.109375 -0.234375q-0.484375 -0.234375 -0.8125 -0.609375q-0.3125 -0.390625 -0.46875 -0.890625q-0.15625 -0.515625 -0.15625 -1.078125l0 -0.21875q0 -0.5625 0.15625 -1.0625q0.15625 -0.515625 0.46875 -0.90625q0.328125 -0.390625 0.8125 -0.609375q0.484375 -0.234375 1.109375 -0.234375q0.5 0 0.921875 0.15625q0.421875 0.15625 0.71875 0.4375q0.3125 0.265625 0.484375 0.640625q0.171875 0.375 0.171875 0.8125l-0.90625 0q-0.015625 -0.265625 -0.125 -0.484375q-0.09375 -0.234375 -0.28125 -0.40625q-0.1875 -0.171875 -0.4375 -0.265625q-0.25 -0.09375 -0.546875 -0.09375q-0.4375 0 -0.75 0.1875q-0.296875 0.171875 -0.484375 0.46875q-0.1875 0.28125 -0.265625 0.640625q-0.078125 0.359375 -0.078125 0.71875l0 0.21875q0 0.359375 0.078125 0.734375q0.078125 0.359375 0.265625 0.65625q0.1875 0.28125 0.484375 0.46875q0.296875 0.171875 0.75 0.171875zm6.2854156 -6.328125l0 1.375l2.140625 0l0 0.734375l-2.140625 0l0 3.0625q0 0.328125 0.078125 0.546875q0.078125 0.203125 0.21875 0.34375q0.15625 0.125 0.34375 0.171875q0.1875 0.046875 0.40625 0.046875q0.15625 0 0.3125 -0.015625q0.171875 -0.015625 0.328125 -0.03125q0.171875 -0.03125 0.296875 -0.0625q0.140625 -0.03125 0.234375 -0.046875l0.140625 0.671875q-0.125 0.078125 -0.296875 0.140625q-0.171875 0.046875 -0.375 0.078125q-0.203125 0.046875 -0.4375 0.0625q-0.21875 0.03125 -0.4375 0.03125q-0.375 0 -0.703125 -0.109375q-0.328125 -0.109375 -0.5625 -0.34375q-0.234375 -0.234375 -0.375 -0.59375q-0.140625 -0.375 -0.140625 -0.890625l0 -3.0625l-1.484375 0l0 -0.734375l1.484375 0l0 -1.375l0.96875 0zm4.2697906 1.375l2.875 0l0 4.796875l1.828125 0l0 0.828125l-4.703125 0l0 -0.828125l1.90625 0l0 -3.96875l-1.90625 0l0 -0.828125zm1.78125 -1.484375q0 -0.234375 0.140625 -0.390625q0.140625 -0.171875 0.4375 -0.171875q0.28125 0 0.421875 0.171875q0.15625 0.15625 0.15625 0.390625q0 0.234375 -0.15625 0.390625q-0.140625 0.15625 -0.421875 0.15625q-0.296875 0 -0.4375 -0.15625q-0.140625 -0.15625 -0.140625 -0.390625zm4.1916656 4.25q0 -0.609375 0.171875 -1.125q0.171875 -0.53125 0.5 -0.921875q0.34375 -0.390625 0.8125 -0.609375q0.46875 -0.21875 1.0625 -0.21875q0.59375 0 1.0625 0.21875q0.484375 0.21875 0.8125 0.609375q0.34375 0.390625 0.515625 0.921875q0.171875 0.515625 0.171875 1.125l0 0.109375q0 0.609375 -0.171875 1.125q-0.171875 0.515625 -0.515625 0.90625q-0.328125 0.390625 -0.796875 0.609375q-0.46875 0.21875 -1.0625 0.21875q-0.59375 0 -1.078125 -0.21875q-0.46875 -0.21875 -0.8125 -0.609375q-0.328125 -0.390625 -0.5 -0.90625q-0.171875 -0.515625 -0.171875 -1.125l0 -0.109375zm0.953125 0.109375q0 0.40625 0.09375 0.796875q0.109375 0.375 0.3125 0.65625q0.203125 0.28125 0.5 0.453125q0.296875 0.171875 0.703125 0.171875q0.390625 0 0.6875 -0.171875q0.296875 -0.171875 0.5 -0.453125q0.203125 -0.28125 0.296875 -0.65625q0.109375 -0.390625 0.109375 -0.796875l0 -0.109375q0 -0.421875 -0.109375 -0.796875q-0.09375 -0.375 -0.296875 -0.65625q-0.203125 -0.296875 -0.5 -0.453125q-0.296875 -0.171875 -0.703125 -0.171875q-0.40625 0 -0.703125 0.171875q-0.28125 0.15625 -0.484375 0.453125q-0.203125 0.28125 -0.3125 0.65625q-0.09375 0.375 -0.09375 0.796875l0 0.109375zm6.5666656 -2.875l0.078125 0.828125q0.296875 -0.4375 0.734375 -0.6875q0.453125 -0.25 1.015625 -0.25q0.4375 0 0.796875 0.125q0.359375 0.125 0.609375 0.390625q0.265625 0.265625 0.40625 0.671875q0.140625 0.40625 0.140625 0.96875l0 3.578125l-0.96875 0l0 -3.546875q0 -0.375 -0.09375 -0.640625q-0.078125 -0.265625 -0.25 -0.421875q-0.15625 -0.15625 -0.390625 -0.234375q-0.234375 -0.078125 -0.546875 -0.078125q-0.484375 0 -0.84375 0.25q-0.359375 0.234375 -0.578125 0.640625l0 4.03125l-0.96875 0l0 -5.625l0.859375 0z" fill-rule="nonzero"/><path fill="#efefef" d="m32.11221 129.92766l0 -7.5781174l2.25 0q0.46875 0 0.921875 0.125q0.453125 0.109375 0.796875 0.359375q0.34375 0.25 0.546875 0.625q0.21875 0.375 0.21875 0.90625q-0.015625 0.296875 -0.109375 0.546875q-0.078125 0.25 -0.25 0.453125q-0.15625 0.1875 -0.375 0.328125q-0.203125 0.140625 -0.4375 0.25q0.296875 0.09375 0.546875 0.265625q0.25 0.15625 0.4375 0.390625q0.1875 0.21875 0.28125 0.515625q0.109375 0.28125 0.109375 0.625q0 0.5312424 -0.21875 0.9374924q-0.203125 0.40625 -0.546875 0.6875q-0.34375 0.265625 -0.8125 0.421875q-0.453125 0.140625 -0.9375 0.140625l-2.421875 0zm0.96875 -3.5468674l0 2.7343674l1.484375 0q0.296875 -0.015625 0.5625 -0.109375q0.28125 -0.09375 0.484375 -0.265625q0.21875 -0.171875 0.328125 -0.421875q0.125 -0.25 0.125 -0.5624924q0.015625 -0.328125 -0.109375 -0.578125q-0.109375 -0.25 -0.3125 -0.421875q-0.1875 -0.171875 -0.453125 -0.265625q-0.265625 -0.09375 -0.578125 -0.109375l-1.53125 0zm0 -0.796875l1.34375 0q0.265625 0 0.53125 -0.078125q0.265625 -0.09375 0.46875 -0.234375q0.203125 -0.15625 0.328125 -0.375q0.125 -0.234375 0.125 -0.53125q0 -0.3125 -0.125 -0.53125q-0.125 -0.234375 -0.328125 -0.375q-0.203125 -0.140625 -0.484375 -0.203125q-0.265625 -0.078125 -0.546875 -0.078125l-1.3125 0l0 2.40625zm9.144791 4.3437424q-0.0625 -0.109375 -0.09375 -0.265625q-0.03125 -0.171875 -0.046875 -0.34375q-0.15625 0.140625 -0.34375 0.28125q-0.171875 0.125 -0.390625 0.21875q-0.203125 0.09375 -0.453125 0.15625q-0.25 0.0625 -0.515625 0.0625q-0.453125 0 -0.8125 -0.125q-0.359375 -0.140625 -0.609375 -0.359375q-0.25 -0.21875 -0.390625 -0.515625q-0.140625 -0.3125 -0.140625 -0.671875q0 -0.46874237 0.1875 -0.8124924q0.1875 -0.34375 0.515625 -0.578125q0.34375 -0.234375 0.8125 -0.34375q0.484375 -0.109375 1.0625 -0.109375l1.0625 0l0 -0.453125q0 -0.25 -0.09375 -0.453125q-0.09375 -0.203125 -0.265625 -0.34375q-0.171875 -0.140625 -0.421875 -0.21875q-0.25 -0.078125 -0.5625 -0.078125q-0.28125 0 -0.515625 0.078125q-0.21875 0.0625 -0.375 0.1875q-0.15625 0.109375 -0.25 0.28125q-0.078125 0.15625 -0.078125 0.34375l-0.96875 0q0.015625 -0.3125 0.15625 -0.609375q0.15625 -0.296875 0.4375 -0.53125q0.296875 -0.234375 0.703125 -0.375q0.421875 -0.15625 0.953125 -0.15625q0.46875 0 0.875 0.125q0.421875 0.109375 0.71875 0.34375q0.296875 0.234375 0.46875 0.59375q0.171875 0.359375 0.171875 0.828125l0 2.6093674q0 0.28125 0.046875 0.609375q0.0625 0.3125 0.15625 0.546875l0 0.078125l-1.0 0zm-1.703125 -0.734375q0.28125 0 0.515625 -0.0625q0.25 -0.078125 0.453125 -0.203125q0.203125 -0.125 0.34375 -0.265625q0.140625 -0.15625 0.234375 -0.328125l0 -1.1406174l-0.90625 0q-0.84375 0 -1.3125 0.25q-0.453125 0.25 -0.453125 0.7812424q0 0.21875 0.0625 0.390625q0.078125 0.171875 0.21875 0.3125q0.140625 0.125 0.34375 0.203125q0.21875 0.0625 0.5 0.0625zm6.7854156 0.0625q0.265625 0 0.515625 -0.078125q0.25 -0.09375 0.4375 -0.234375q0.1875 -0.15625 0.296875 -0.359375q0.125 -0.203125 0.140625 -0.4375l0.90625 0q0 0.375 -0.203125 0.71875q-0.1875 0.34375 -0.5 0.609375q-0.3125 0.25 -0.734375 0.40625q-0.40625 0.15625 -0.859375 0.15625q-0.625 0 -1.109375 -0.234375q-0.484375 -0.234375 -0.8125 -0.609375q-0.3125 -0.390625 -0.46875 -0.890625q-0.15625 -0.5156174 -0.15625 -1.0781174l0 -0.21875q0 -0.5625 0.15625 -1.0625q0.15625 -0.515625 0.46875 -0.90625q0.328125 -0.390625 0.8125 -0.609375q0.484375 -0.234375 1.109375 -0.234375q0.5 0 0.921875 0.15625q0.421875 0.15625 0.71875 0.4375q0.3125 0.265625 0.484375 0.640625q0.171875 0.375 0.171875 0.8125l-0.90625 0q-0.015625 -0.265625 -0.125 -0.484375q-0.09375 -0.234375 -0.28125 -0.40625q-0.1875 -0.171875 -0.4375 -0.265625q-0.25 -0.09375 -0.546875 -0.09375q-0.4375 0 -0.75 0.1875q-0.296875 0.171875 -0.484375 0.46875q-0.1875 0.28125 -0.265625 0.640625q-0.078125 0.359375 -0.078125 0.71875l0 0.21875q0 0.359375 0.078125 0.734375q0.078125 0.35936737 0.265625 0.6562424q0.1875 0.28125 0.484375 0.46875q0.296875 0.171875 0.75 0.171875zm5.6916656 -1.9531174l-0.703125 0.671875l0 1.9531174l-0.96875 0l0 -7.9999924l0.96875 0l0 4.90625l0.625 -0.6875l1.84375 -1.84375l1.171875 0l-2.28125 2.34375l2.625 3.2812424l-1.21875 0l-2.0625 -2.6249924zm4.5354156 -0.234375q0 -0.625 0.140625 -1.15625q0.15625 -0.53125 0.453125 -0.90625q0.296875 -0.390625 0.703125 -0.59375q0.421875 -0.21875 0.9375 -0.21875q0.53125 0 0.921875 0.1875q0.390625 0.1875 0.671875 0.53125l0.046875 -0.609375l0.875 0l0 5.4999924q0 0.5625 -0.1875 0.984375q-0.171875 0.4375 -0.484375 0.734375q-0.3125 0.3125 -0.75 0.46875q-0.4375 0.15625 -0.96875 0.15625q-0.21875 0 -0.5 -0.046875q-0.28125 -0.046875 -0.578125 -0.171875q-0.28125 -0.109375 -0.546875 -0.296875q-0.265625 -0.1875 -0.453125 -0.453125l0.5 -0.578125q0.171875 0.203125 0.359375 0.34375q0.1875 0.15625 0.375 0.25q0.203125 0.09375 0.390625 0.125q0.1875 0.046875 0.375 0.046875q0.34375 0 0.625 -0.109375q0.28125 -0.09375 0.46875 -0.28125q0.203125 -0.1875 0.296875 -0.46875q0.109375 -0.28125 0.109375 -0.65625l0 -0.484375q-0.28125 0.328125 -0.671875 0.5q-0.375 0.171875 -0.875 0.171875q-0.515625 0 -0.9375 -0.21875q-0.40625 -0.21875 -0.703125 -0.609375q-0.28125 -0.390625 -0.4375 -0.90625q-0.15625 -0.5312424 -0.15625 -1.1249924l0 -0.109375zm0.953125 0.109375q0 0.40625 0.078125 0.78125q0.09375 0.35936737 0.28125 0.6406174q0.1875 0.28125 0.46875 0.453125q0.28125 0.15625 0.6875 0.15625q0.25 0 0.453125 -0.046875q0.203125 -0.0625 0.359375 -0.171875q0.15625 -0.109375 0.28125 -0.265625q0.125 -0.15625 0.21875 -0.328125l0 -2.5781174q-0.09375 -0.1875 -0.21875 -0.328125q-0.125 -0.140625 -0.296875 -0.25q-0.15625 -0.109375 -0.359375 -0.171875q-0.1875 -0.0625 -0.421875 -0.0625q-0.40625 0 -0.703125 0.171875q-0.28125 0.171875 -0.46875 0.453125q-0.1875 0.28125 -0.28125 0.65625q-0.078125 0.375 -0.078125 0.78125l0 0.109375zm9.301044 -2.984375q0.140625 0 0.28125 0.015625q0.140625 0 0.265625 0.015625q0.140625 0.015625 0.25 0.046875q0.125 0.03125 0.1875 0.0625l-0.125 0.9375q-0.28125 -0.0625 -0.53125 -0.09375q-0.25 -0.03125 -0.53125 -0.03125q-0.671875 0 -1.09375 0.3125q-0.421875 0.3125 -0.625 0.859375l0 3.6093674l-0.953125 0l0 -5.6249924l0.90625 0l0.046875 0.890625q0.34375 -0.46875 0.828125 -0.734375q0.484375 -0.265625 1.09375 -0.265625zm2.4416656 2.875q0 -0.609375 0.171875 -1.125q0.171875 -0.53125 0.5 -0.921875q0.34375 -0.390625 0.8125 -0.609375q0.46875 -0.21875 1.0625 -0.21875q0.59375 0 1.0625 0.21875q0.484375 0.21875 0.8125 0.609375q0.34375 0.390625 0.515625 0.921875q0.171875 0.515625 0.171875 1.125l0 0.109375q0 0.609375 -0.171875 1.1249924q-0.171875 0.515625 -0.515625 0.90625q-0.328125 0.390625 -0.796875 0.609375q-0.46875 0.21875 -1.0625 0.21875q-0.59375 0 -1.078125 -0.21875q-0.46875 -0.21875 -0.8125 -0.609375q-0.328125 -0.390625 -0.5 -0.90625q-0.171875 -0.5156174 -0.171875 -1.1249924l0 -0.109375zm0.953125 0.109375q0 0.40625 0.09375 0.796875q0.109375 0.37499237 0.3125 0.6562424q0.203125 0.28125 0.5 0.453125q0.296875 0.171875 0.703125 0.171875q0.390625 0 0.6875 -0.171875q0.296875 -0.171875 0.5 -0.453125q0.203125 -0.28125 0.296875 -0.6562424q0.109375 -0.390625 0.109375 -0.796875l0 -0.109375q0 -0.421875 -0.109375 -0.796875q-0.09375 -0.375 -0.296875 -0.65625q-0.203125 -0.296875 -0.5 -0.453125q-0.296875 -0.171875 -0.703125 -0.171875q-0.40625 0 -0.703125 0.171875q-0.28125 0.15625 -0.484375 0.453125q-0.203125 0.28125 -0.3125 0.65625q-0.09375 0.375 -0.09375 0.796875l0 0.109375zm9.363541 1.9687424q-0.28125 0.421875 -0.703125 0.65625q-0.421875 0.234375 -0.984375 0.234375q-0.4375 0 -0.796875 -0.140625q-0.359375 -0.140625 -0.609375 -0.421875q-0.25 -0.296875 -0.390625 -0.75q-0.140625 -0.453125 -0.140625 -1.0781174l0 -3.34375l0.96875 0l0 3.34375q0 0.46874237 0.0625 0.7656174q0.078125 0.296875 0.21875 0.484375q0.15625 0.171875 0.359375 0.25q0.203125 0.078125 0.484375 0.078125q0.59375 0 0.953125 -0.234375q0.359375 -0.25 0.53125 -0.65625l0 -4.0312424l0.96875 0l0 5.6249924l-0.875 0l-0.046875 -0.78125zm3.5979156 -4.8437424l0.078125 0.828125q0.296875 -0.4375 0.734375 -0.6875q0.453125 -0.25 1.015625 -0.25q0.4375 0 0.796875 0.125q0.359375 0.125 0.609375 0.390625q0.265625 0.265625 0.40625 0.671875q0.140625 0.40625 0.140625 0.96875l0 3.5781174l-0.96875 0l0 -3.5468674q0 -0.375 -0.09375 -0.640625q-0.078125 -0.265625 -0.25 -0.421875q-0.15625 -0.15625 -0.390625 -0.234375q-0.234375 -0.078125 -0.546875 -0.078125q-0.484375 0 -0.84375 0.25q-0.359375 0.234375 -0.578125 0.640625l0 4.0312424l-0.96875 0l0 -5.6249924l0.859375 0zm5.3479156 2.765625q0 -0.625 0.15625 -1.15625q0.171875 -0.53125 0.453125 -0.90625q0.296875 -0.390625 0.71875 -0.59375q0.421875 -0.21875 0.921875 -0.21875q0.515625 0 0.890625 0.171875q0.375 0.171875 0.65625 0.484375l0 -2.921875l0.953125 0l0 7.9999924l-0.875 0l-0.046875 -0.59375q-0.28125 0.34375 -0.671875 0.53125q-0.390625 0.171875 -0.90625 0.171875q-0.515625 0 -0.9375 -0.21875q-0.40625 -0.21875 -0.703125 -0.609375q-0.28125 -0.390625 -0.453125 -0.90625q-0.15625 -0.5312424 -0.15625 -1.1249924l0 -0.109375zm0.96875 0.109375q0 0.40625 0.078125 0.78125q0.09375 0.35936737 0.28125 0.6406174q0.1875 0.28125 0.46875 0.453125q0.28125 0.15625 0.6875 0.15625q0.25 0 0.4375 -0.046875q0.203125 -0.0625 0.359375 -0.171875q0.171875 -0.109375 0.296875 -0.25q0.125 -0.15625 0.21875 -0.328125l0 -2.6093674q-0.1875 -0.34375 -0.515625 -0.5625q-0.3125 -0.234375 -0.78125 -0.234375q-0.40625 0 -0.703125 0.171875q-0.28125 0.171875 -0.46875 0.453125q-0.1875 0.28125 -0.28125 0.65625q-0.078125 0.375 -0.078125 0.78125l0 0.109375z" fill-rule="nonzero"/><path fill="#434343" d="m152.89548 128.00578q0 -0.34374237 -0.171875 -0.5781174q-0.15625 -0.234375 -0.40625 -0.390625q-0.25 -0.171875 -0.546875 -0.28125q-0.296875 -0.109375 -0.578125 -0.203125q-0.390625 -0.125 -0.8125 -0.3125q-0.40625 -0.1875 -0.75 -0.453125q-0.34375 -0.265625 -0.5625 -0.625q-0.203125 -0.359375 -0.203125 -0.84375q0 -0.5 0.203125 -0.875q0.21875 -0.390625 0.5625 -0.65625q0.359375 -0.265625 0.796875 -0.40625q0.4375 -0.140625 0.890625 -0.140625q0.5 0 0.953125 0.171875q0.453125 0.15625 0.8125 0.453125q0.359375 0.296875 0.5625 0.71875q0.21875 0.421875 0.234375 0.953125l-1.0 0q-0.03125 -0.328125 -0.15625 -0.59375q-0.125 -0.28125 -0.328125 -0.46875q-0.1875 -0.1875 -0.46875 -0.296875q-0.265625 -0.109375 -0.609375 -0.109375q-0.28125 0 -0.546875 0.078125q-0.25 0.078125 -0.453125 0.234375q-0.203125 0.15625 -0.328125 0.390625q-0.125 0.21875 -0.125 0.53125q0 0.328125 0.15625 0.5625q0.171875 0.21875 0.421875 0.375q0.25 0.15625 0.53125 0.265625q0.28125 0.09375 0.546875 0.171875q0.28125 0.09375 0.5625 0.203125q0.28125 0.109375 0.546875 0.265625q0.265625 0.140625 0.5 0.328125q0.234375 0.171875 0.40625 0.40625q0.171875 0.234375 0.265625 0.515625q0.09375 0.265625 0.09375 0.6093674q0 0.5 -0.234375 0.890625q-0.21875 0.375 -0.578125 0.625q-0.359375 0.25 -0.8125 0.390625q-0.453125 0.125 -0.90625 0.125q-0.5 0 -0.984375 -0.15625q-0.484375 -0.15625 -0.875 -0.453125q-0.375 -0.296875 -0.625 -0.71875q-0.234375 -0.421875 -0.25 -0.9687424l0.984375 0q0.046875 0.35936737 0.1875 0.6406174q0.15625 0.265625 0.375 0.453125q0.234375 0.1875 0.53125 0.28125q0.296875 0.09375 0.65625 0.09375q0.28125 0 0.546875 -0.0625q0.28125 -0.078125 0.484375 -0.21875q0.21875 -0.15625 0.359375 -0.375q0.140625 -0.234375 0.140625 -0.546875zm4.9104156 2.03125q-0.59375 0 -1.09375 -0.203125q-0.484375 -0.203125 -0.84375 -0.5625q-0.359375 -0.375 -0.5625 -0.875q-0.1875 -0.49999237 -0.1875 -1.0937424l0 -0.203125q0 -0.6875 0.21875 -1.21875q0.21875 -0.546875 0.578125 -0.921875q0.359375 -0.375 0.8125 -0.5625q0.46875 -0.203125 0.953125 -0.203125q0.609375 0 1.0625 0.21875q0.453125 0.203125 0.75 0.578125q0.3125 0.375 0.453125 0.875q0.15625 0.5 0.15625 1.09375l0 0.421875l-4.015625 0q0.015625 0.390625 0.140625 0.7343674q0.140625 0.328125 0.359375 0.59375q0.234375 0.25 0.546875 0.390625q0.328125 0.140625 0.71875 0.140625q0.515625 0 0.921875 -0.203125q0.40625 -0.203125 0.671875 -0.546875l0.578125 0.453125q-0.140625 0.21875 -0.359375 0.421875q-0.203125 0.1875 -0.484375 0.34375q-0.265625 0.140625 -0.625 0.234375q-0.34375 0.09375 -0.75 0.09375zm-0.125 -5.0468674q-0.296875 0 -0.5625 0.109375q-0.25 0.09375 -0.453125 0.3125q-0.203125 0.203125 -0.359375 0.5q-0.140625 0.296875 -0.1875 0.6875l3.015625 0l0 -0.078125q-0.015625 -0.28125 -0.109375 -0.546875q-0.078125 -0.28125 -0.265625 -0.5q-0.171875 -0.21875 -0.4375 -0.34375q-0.265625 -0.140625 -0.640625 -0.140625zm4.1916656 -3.0625l2.875 0l0 7.1718674l1.828125 0l0 0.828125l-4.703125 0l0 -0.828125l1.90625 0l0 -6.3281174l-1.90625 0l0 -0.84375zm8.722916 8.109367q-0.59375 0 -1.09375 -0.203125q-0.484375 -0.203125 -0.84375 -0.5625q-0.359375 -0.375 -0.5625 -0.875q-0.1875 -0.49999237 -0.1875 -1.0937424l0 -0.203125q0 -0.6875 0.21875 -1.21875q0.21875 -0.546875 0.578125 -0.921875q0.359375 -0.375 0.8125 -0.5625q0.46875 -0.203125 0.953125 -0.203125q0.609375 0 1.0625 0.21875q0.453125 0.203125 0.75 0.578125q0.3125 0.375 0.453125 0.875q0.15625 0.5 0.15625 1.09375l0 0.421875l-4.015625 0q0.015625 0.390625 0.140625 0.7343674q0.140625 0.328125 0.359375 0.59375q0.234375 0.25 0.546875 0.390625q0.328125 0.140625 0.71875 0.140625q0.515625 0 0.921875 -0.203125q0.40625 -0.203125 0.671875 -0.546875l0.578125 0.453125q-0.140625 0.21875 -0.359375 0.421875q-0.203125 0.1875 -0.484375 0.34375q-0.265625 0.140625 -0.625 0.234375q-0.34375 0.09375 -0.75 0.09375zm-0.125 -5.0468674q-0.296875 0 -0.5625 0.109375q-0.25 0.09375 -0.453125 0.3125q-0.203125 0.203125 -0.359375 0.5q-0.140625 0.296875 -0.1875 0.6875l3.015625 0l0 -0.078125q-0.015625 -0.28125 -0.109375 -0.546875q-0.078125 -0.28125 -0.265625 -0.5q-0.171875 -0.21875 -0.4375 -0.34375q-0.265625 -0.140625 -0.640625 -0.140625zm6.4260406 4.2656174q0.265625 0 0.515625 -0.078125q0.25 -0.09375 0.4375 -0.234375q0.1875 -0.15625 0.296875 -0.359375q0.125 -0.203125 0.140625 -0.4375l0.90625 0q0 0.375 -0.203125 0.71875q-0.1875 0.34375 -0.5 0.609375q-0.3125 0.25 -0.734375 0.40625q-0.40625 0.15625 -0.859375 0.15625q-0.625 0 -1.109375 -0.234375q-0.484375 -0.234375 -0.8125 -0.609375q-0.3125 -0.390625 -0.46875 -0.890625q-0.15625 -0.5156174 -0.15625 -1.0781174l0 -0.21875q0 -0.5625 0.15625 -1.0625q0.15625 -0.515625 0.46875 -0.90625q0.328125 -0.390625 0.8125 -0.609375q0.484375 -0.234375 1.109375 -0.234375q0.5 0 0.921875 0.15625q0.421875 0.15625 0.71875 0.4375q0.3125 0.265625 0.484375 0.640625q0.171875 0.375 0.171875 0.8125l-0.90625 0q-0.015625 -0.265625 -0.125 -0.484375q-0.09375 -0.234375 -0.28125 -0.40625q-0.1875 -0.171875 -0.4375 -0.265625q-0.25 -0.09375 -0.546875 -0.09375q-0.4375 0 -0.75 0.1875q-0.296875 0.171875 -0.484375 0.46875q-0.1875 0.28125 -0.265625 0.640625q-0.078125 0.359375 -0.078125 0.71875l0 0.21875q0 0.359375 0.078125 0.734375q0.078125 0.35936737 0.265625 0.6562424q0.1875 0.28125 0.484375 0.46875q0.296875 0.171875 0.75 0.171875zm6.2854156 -6.3281174l0 1.375l2.140625 0l0 0.734375l-2.140625 0l0 3.0624924q0 0.328125 0.078125 0.546875q0.078125 0.203125 0.21875 0.34375q0.15625 0.125 0.34375 0.171875q0.1875 0.046875 0.40625 0.046875q0.15625 0 0.3125 -0.015625q0.171875 -0.015625 0.328125 -0.03125q0.171875 -0.03125 0.296875 -0.0625q0.140625 -0.03125 0.234375 -0.046875l0.140625 0.671875q-0.125 0.078125 -0.296875 0.140625q-0.171875 0.046875 -0.375 0.078125q-0.203125 0.046875 -0.4375 0.0625q-0.21875 0.03125 -0.4375 0.03125q-0.375 0 -0.703125 -0.109375q-0.328125 -0.109375 -0.5625 -0.34375q-0.234375 -0.234375 -0.375 -0.59375q-0.140625 -0.375 -0.140625 -0.890625l0 -3.0624924l-1.484375 0l0 -0.734375l1.484375 0l0 -1.375l0.96875 0zm6.5979156 7.1093674q-0.59375 0 -1.09375 -0.203125q-0.484375 -0.203125 -0.84375 -0.5625q-0.359375 -0.375 -0.5625 -0.875q-0.1875 -0.49999237 -0.1875 -1.0937424l0 -0.203125q0 -0.6875 0.21875 -1.21875q0.21875 -0.546875 0.578125 -0.921875q0.359375 -0.375 0.8125 -0.5625q0.46875 -0.203125 0.953125 -0.203125q0.609375 0 1.0625 0.21875q0.453125 0.203125 0.75 0.578125q0.3125 0.375 0.453125 0.875q0.15625 0.5 0.15625 1.09375l0 0.421875l-4.015625 0q0.015625 0.390625 0.140625 0.7343674q0.140625 0.328125 0.359375 0.59375q0.234375 0.25 0.546875 0.390625q0.328125 0.140625 0.71875 0.140625q0.515625 0 0.921875 -0.203125q0.40625 -0.203125 0.671875 -0.546875l0.578125 0.453125q-0.140625 0.21875 -0.359375 0.421875q-0.203125 0.1875 -0.484375 0.34375q-0.265625 0.140625 -0.625 0.234375q-0.34375 0.09375 -0.75 0.09375zm-0.125 -5.0468674q-0.296875 0 -0.5625 0.109375q-0.25 0.09375 -0.453125 0.3125q-0.203125 0.203125 -0.359375 0.5q-0.140625 0.296875 -0.1875 0.6875l3.015625 0l0 -0.078125q-0.015625 -0.28125 -0.109375 -0.546875q-0.078125 -0.28125 -0.265625 -0.5q-0.171875 -0.21875 -0.4375 -0.34375q-0.265625 -0.140625 -0.640625 -0.140625zm3.8479156 2.078125q0 -0.625 0.15625 -1.15625q0.171875 -0.53125 0.453125 -0.90625q0.296875 -0.390625 0.71875 -0.59375q0.421875 -0.21875 0.921875 -0.21875q0.515625 0 0.890625 0.171875q0.375 0.171875 0.65625 0.484375l0 -2.921875l0.953125 0l0 7.9999924l-0.875 0l-0.046875 -0.59375q-0.28125 0.34375 -0.671875 0.53125q-0.390625 0.171875 -0.90625 0.171875q-0.515625 0 -0.9375 -0.21875q-0.40625 -0.21875 -0.703125 -0.609375q-0.28125 -0.390625 -0.453125 -0.90625q-0.15625 -0.5312424 -0.15625 -1.1249924l0 -0.109375zm0.96875 0.109375q0 0.40625 0.078125 0.78125q0.09375 0.35936737 0.28125 0.6406174q0.1875 0.28125 0.46875 0.453125q0.28125 0.15625 0.6875 0.15625q0.25 0 0.4375 -0.046875q0.203125 -0.0625 0.359375 -0.171875q0.171875 -0.109375 0.296875 -0.25q0.125 -0.15625 0.21875 -0.328125l0 -2.6093674q-0.1875 -0.34375 -0.515625 -0.5625q-0.3125 -0.234375 -0.78125 -0.234375q-0.40625 0 -0.703125 0.171875q-0.28125 0.171875 -0.46875 0.453125q-0.1875 0.28125 -0.28125 0.65625q-0.078125 0.375 -0.078125 0.78125l0 0.109375zm17.117706 -4.0l-2.34375 0l0 6.7499924l-0.9375 0l0 -6.7499924l-2.34375 0l0 -0.828125l5.625 0l0 0.828125zm3.7697906 6.8593674q-0.59375 0 -1.09375 -0.203125q-0.484375 -0.203125 -0.84375 -0.5625q-0.359375 -0.375 -0.5625 -0.875q-0.1875 -0.49999237 -0.1875 -1.0937424l0 -0.203125q0 -0.6875 0.21875 -1.21875q0.21875 -0.546875 0.578125 -0.921875q0.359375 -0.375 0.8125 -0.5625q0.46875 -0.203125 0.953125 -0.203125q0.609375 0 1.0625 0.21875q0.453125 0.203125 0.75 0.578125q0.3125 0.375 0.453125 0.875q0.15625 0.5 0.15625 1.09375l0 0.421875l-4.015625 0q0.015625 0.390625 0.140625 0.7343674q0.140625 0.328125 0.359375 0.59375q0.234375 0.25 0.546875 0.390625q0.328125 0.140625 0.71875 0.140625q0.515625 0 0.921875 -0.203125q0.40625 -0.203125 0.671875 -0.546875l0.578125 0.453125q-0.140625 0.21875 -0.359375 0.421875q-0.203125 0.1875 -0.484375 0.34375q-0.265625 0.140625 -0.625 0.234375q-0.34375 0.09375 -0.75 0.09375zm-0.125 -5.0468674q-0.296875 0 -0.5625 0.109375q-0.25 0.09375 -0.453125 0.3125q-0.203125 0.203125 -0.359375 0.5q-0.140625 0.296875 -0.1875 0.6875l3.015625 0l0 -0.078125q-0.015625 -0.28125 -0.109375 -0.546875q-0.078125 -0.28125 -0.265625 -0.5q-0.171875 -0.21875 -0.4375 -0.34375q-0.265625 -0.140625 -0.640625 -0.140625zm6.3635406 1.390625l1.5 -2.078125l1.125 0l-2.09375 2.78125l2.15625 2.8437424l-1.109375 0l-1.5625 -2.1406174l-1.546875 2.1406174l-1.125 0l2.140625 -2.8437424l-2.09375 -2.78125l1.125 0l1.484375 2.078125zm6.3479156 -3.453125l0 1.375l2.140625 0l0 0.734375l-2.140625 0l0 3.0624924q0 0.328125 0.078125 0.546875q0.078125 0.203125 0.21875 0.34375q0.15625 0.125 0.34375 0.171875q0.1875 0.046875 0.40625 0.046875q0.15625 0 0.3125 -0.015625q0.171875 -0.015625 0.328125 -0.03125q0.171875 -0.03125 0.296875 -0.0625q0.140625 -0.03125 0.234375 -0.046875l0.140625 0.671875q-0.125 0.078125 -0.296875 0.140625q-0.171875 0.046875 -0.375 0.078125q-0.203125 0.046875 -0.4375 0.0625q-0.21875 0.03125 -0.4375 0.03125q-0.375 0 -0.703125 -0.109375q-0.328125 -0.109375 -0.5625 -0.34375q-0.234375 -0.234375 -0.375 -0.59375q-0.140625 -0.375 -0.140625 -0.890625l0 -3.0624924l-1.484375 0l0 -0.734375l1.484375 0l0 -1.375l0.96875 0z" fill-rule="nonzero"/><path fill="#434343" d="m51.29658 184.88829l0 -7.578125l2.25 0q0.46875 0 0.921875 0.125q0.453125 0.109375 0.796875 0.359375q0.34375 0.25 0.546875 0.625q0.21875 0.375 0.21875 0.90625q-0.015625 0.296875 -0.109375 0.546875q-0.078125 0.25 -0.25 0.453125q-0.15625 0.1875 -0.375 0.328125q-0.203125 0.140625 -0.4375 0.25q0.296875 0.09375 0.546875 0.265625q0.25 0.15625 0.4375 0.390625q0.1875 0.21875 0.28125 0.515625q0.109375 0.28125 0.109375 0.625q0 0.53125 -0.21875 0.9375q-0.203125 0.40625 -0.546875 0.6875q-0.34375 0.265625 -0.8125 0.421875q-0.453125 0.140625 -0.9375 0.140625l-2.421875 0zm0.96875 -3.546875l0 2.734375l1.484375 0q0.296875 -0.015625 0.5625 -0.109375q0.28125 -0.09375 0.484375 -0.265625q0.21875 -0.171875 0.328125 -0.421875q0.125 -0.25 0.125 -0.5625q0.015625 -0.328125 -0.109375 -0.578125q-0.109375 -0.25 -0.3125 -0.421875q-0.1875 -0.171875 -0.453125 -0.265625q-0.265625 -0.09375 -0.578125 -0.109375l-1.53125 0zm0 -0.796875l1.34375 0q0.265625 0 0.53125 -0.078125q0.265625 -0.09375 0.46875 -0.234375q0.203125 -0.15625 0.328125 -0.375q0.125 -0.234375 0.125 -0.53125q0 -0.3125 -0.125 -0.53125q-0.125 -0.234375 -0.328125 -0.375q-0.203125 -0.140625 -0.484375 -0.203125q-0.265625 -0.078125 -0.546875 -0.078125l-1.3125 0l0 2.40625zm5.1760406 1.484375q0 -0.609375 0.171875 -1.125q0.171875 -0.53125 0.5 -0.921875q0.34375 -0.390625 0.8125 -0.609375q0.46875 -0.21875 1.0625 -0.21875q0.59375 0 1.0625 0.21875q0.484375 0.21875 0.8125 0.609375q0.34375 0.390625 0.515625 0.921875q0.171875 0.515625 0.171875 1.125l0 0.109375q0 0.609375 -0.171875 1.125q-0.171875 0.515625 -0.515625 0.90625q-0.328125 0.390625 -0.796875 0.609375q-0.46875 0.21875 -1.0625 0.21875q-0.59375 0 -1.078125 -0.21875q-0.46875 -0.21875 -0.8125 -0.609375q-0.328125 -0.390625 -0.5 -0.90625q-0.171875 -0.515625 -0.171875 -1.125l0 -0.109375zm0.953125 0.109375q0 0.40625 0.09375 0.796875q0.109375 0.375 0.3125 0.65625q0.203125 0.28125 0.5 0.453125q0.296875 0.171875 0.703125 0.171875q0.390625 0 0.6875 -0.171875q0.296875 -0.171875 0.5 -0.453125q0.203125 -0.28125 0.296875 -0.65625q0.109375 -0.390625 0.109375 -0.796875l0 -0.109375q0 -0.421875 -0.109375 -0.796875q-0.09375 -0.375 -0.296875 -0.65625q-0.203125 -0.296875 -0.5 -0.453125q-0.296875 -0.171875 -0.703125 -0.171875q-0.40625 0 -0.703125 0.171875q-0.28125 0.15625 -0.484375 0.453125q-0.203125 0.28125 -0.3125 0.65625q-0.09375 0.375 -0.09375 0.796875l0 0.109375zm5.8635445 -5.25l2.875 0l0 7.171875l1.828125 0l0 0.828125l-4.703125 0l0 -0.828125l1.90625 0l0 -6.328125l-1.90625 0l0 -0.84375zm6.0510406 5.140625q0 -0.625 0.15625 -1.15625q0.171875 -0.53125 0.453125 -0.90625q0.296875 -0.390625 0.71875 -0.59375q0.421875 -0.21875 0.921875 -0.21875q0.515625 0 0.890625 0.171875q0.375 0.171875 0.65625 0.484375l0 -2.921875l0.953125 0l0 8.0l-0.875 0l-0.046875 -0.59375q-0.28125 0.34375 -0.671875 0.53125q-0.390625 0.171875 -0.90625 0.171875q-0.515625 0 -0.9375 -0.21875q-0.40625 -0.21875 -0.703125 -0.609375q-0.28125 -0.390625 -0.453125 -0.90625q-0.15625 -0.53125 -0.15625 -1.125l0 -0.109375zm0.96875 0.109375q0 0.40625 0.078125 0.78125q0.09375 0.359375 0.28125 0.640625q0.1875 0.28125 0.46875 0.453125q0.28125 0.15625 0.6875 0.15625q0.25 0 0.4375 -0.046875q0.203125 -0.0625 0.359375 -0.171875q0.171875 -0.109375 0.296875 -0.25q0.125 -0.15625 0.21875 -0.328125l0 -2.609375q-0.1875 -0.34375 -0.515625 -0.5625q-0.3125 -0.234375 -0.78125 -0.234375q-0.40625 0 -0.703125 0.171875q-0.28125 0.171875 -0.46875 0.453125q-0.1875 0.28125 -0.28125 0.65625q-0.078125 0.375 -0.078125 0.78125l0 0.109375z" fill-rule="nonzero"/><path fill="#434343" d="m175.59964 184.07579l3.703125 0l0 0.8125l-4.671875 0l0 -7.578125l0.96875 0l0 6.765625zm5.4572906 -4.8125l2.875 0l0 4.796875l1.828125 0l0 0.828125l-4.703125 0l0 -0.828125l1.90625 0l0 -3.96875l-1.90625 0l0 -0.828125zm1.78125 -1.484375q0 -0.234375 0.140625 -0.390625q0.140625 -0.171875 0.4375 -0.171875q0.28125 0 0.421875 0.171875q0.15625 0.15625 0.15625 0.390625q0 0.234375 -0.15625 0.390625q-0.140625 0.15625 -0.421875 0.15625q-0.296875 0 -0.4375 -0.15625q-0.140625 -0.15625 -0.140625 -0.390625zm5.3166656 1.484375l0.078125 0.828125q0.296875 -0.4375 0.734375 -0.6875q0.453125 -0.25 1.015625 -0.25q0.4375 0 0.796875 0.125q0.359375 0.125 0.609375 0.390625q0.265625 0.265625 0.40625 0.671875q0.140625 0.40625 0.140625 0.96875l0 3.578125l-0.96875 0l0 -3.546875q0 -0.375 -0.09375 -0.640625q-0.078125 -0.265625 -0.25 -0.421875q-0.15625 -0.15625 -0.390625 -0.234375q-0.234375 -0.078125 -0.546875 -0.078125q-0.484375 0 -0.84375 0.25q-0.359375 0.234375 -0.578125 0.640625l0 4.03125l-0.96875 0l0 -5.625l0.859375 0zm7.2229156 3.0l-0.703125 0.671875l0 1.953125l-0.96875 0l0 -8.0l0.96875 0l0 4.90625l0.625 -0.6875l1.84375 -1.84375l1.171875 0l-2.28125 2.34375l2.625 3.28125l-1.21875 0l-2.0625 -2.625zm8.441666 1.125q0 -0.171875 -0.0625 -0.296875q-0.0625 -0.140625 -0.234375 -0.25q-0.15625 -0.125 -0.421875 -0.21875q-0.265625 -0.09375 -0.65625 -0.171875q-0.484375 -0.109375 -0.890625 -0.234375q-0.390625 -0.140625 -0.671875 -0.328125q-0.28125 -0.203125 -0.4375 -0.46875q-0.15625 -0.265625 -0.15625 -0.609375q0 -0.34375 0.15625 -0.640625q0.15625 -0.3125 0.453125 -0.53125q0.296875 -0.21875 0.6875 -0.34375q0.40625 -0.140625 0.890625 -0.140625q0.515625 0 0.9375 0.140625q0.421875 0.125 0.703125 0.375q0.296875 0.234375 0.453125 0.5625q0.15625 0.3125 0.15625 0.6875l-0.953125 0q0 -0.1875 -0.09375 -0.359375q-0.09375 -0.171875 -0.265625 -0.3125q-0.171875 -0.140625 -0.40625 -0.21875q-0.234375 -0.078125 -0.53125 -0.078125q-0.3125 0 -0.546875 0.0625q-0.21875 0.0625 -0.375 0.1875q-0.15625 0.109375 -0.234375 0.265625q-0.078125 0.140625 -0.078125 0.3125q0 0.15625 0.0625 0.296875q0.0625 0.125 0.21875 0.234375q0.15625 0.09375 0.40625 0.1875q0.265625 0.078125 0.65625 0.15625q0.515625 0.109375 0.921875 0.25q0.421875 0.140625 0.703125 0.34375q0.28125 0.203125 0.421875 0.46875q0.15625 0.265625 0.15625 0.609375q0 0.375 -0.171875 0.6875q-0.171875 0.296875 -0.46875 0.515625q-0.296875 0.21875 -0.71875 0.34375q-0.421875 0.125 -0.921875 0.125q-0.578125 0 -1.03125 -0.15625q-0.4375 -0.15625 -0.75 -0.40625q-0.3125 -0.25 -0.484375 -0.578125q-0.15625 -0.34375 -0.15625 -0.703125l0.96875 0q0.015625 0.296875 0.15625 0.5q0.140625 0.203125 0.34375 0.328125q0.203125 0.125 0.453125 0.1875q0.25 0.046875 0.5 0.046875q0.609375 0 0.953125 -0.21875q0.359375 -0.234375 0.359375 -0.609375z" fill-rule="nonzero"/></g></svg>